<svg xmlns="http://www.w3.org/2000/svg" width="30" height="30" viewBox="0 0 30 30">
  <g id="_9025948_phone_outgoing_icon" data-name="9025948_phone_outgoing_icon" transform="translate(0 -0.771)">
    <rect id="Rectangle_187" data-name="Rectangle 187" width="30" height="30" transform="translate(0 0.771)" fill="none"/>
    <path id="Path_184" data-name="Path 184" d="M46.266,43.37a9.977,9.977,0,0,0,4.654,4.643.955.955,0,0,0,.943-.072l2.984-1.993a.943.943,0,0,1,.907-.084l5.585,2.4a.943.943,0,0,1,.573.991,5.729,5.729,0,0,1-5.681,5A16.231,16.231,0,0,1,40,38.024a5.728,5.728,0,0,1,5-5.681.943.943,0,0,1,.992.573l2.4,5.6a.955.955,0,0,1-.072.9L46.325,42.44A.955.955,0,0,0,46.266,43.37Z" transform="translate(-35.226 -28.257)" fill="none" stroke="#fdb42b" stroke-linecap="round" stroke-linejoin="round" stroke-width="1.5"/>
    <path id="Path_185" data-name="Path 185" d="M168,48h4.774v4.774" transform="translate(-147.95 -42.052)" fill="none" stroke="#fdb42b" stroke-linecap="round" stroke-linejoin="round" stroke-width="1.5"/>
    <line id="Line_1" data-name="Line 1" y1="6" x2="6" transform="translate(19 5.771)" fill="none" stroke="#fdb42b" stroke-linecap="round" stroke-linejoin="round" stroke-width="1.5"/>
  </g>
</svg>
