<svg xmlns="http://www.w3.org/2000/svg" width="72.727" height="45" viewBox="0 0 72.727 45">
  <g id="Group_267" data-name="Group 267" transform="translate(-1175.5 -52)">
    <circle id="Ellipse_2" data-name="Ellipse 2" cx="22.5" cy="22.5" r="22.5" transform="translate(1175.5 52)" fill="#fff"/>
    <text id="En" transform="translate(1228.227 81)" fill="#fff" font-size="18" font-family="SegoeUI, Segoe UI"><tspan x="0" y="0">En</tspan></text>
    <g id="_2739100_world_earth_global_icon" data-name="2739100_world_earth_global_icon" transform="translate(1133.473 8.7)">
      <path id="Path_146" data-name="Path 146" d="M391.322,152.324c.352-.077-.04-.822-.352-.9-.235-.04-.665.352-.628.587S390.97,152.441,391.322,152.324Z" transform="translate(-325.629 -94.519)" fill="#242424"/>
      <path id="Path_147" data-name="Path 147" d="M65.025,53.3A12.729,12.729,0,1,0,77.753,66.029,12.753,12.753,0,0,0,65.025,53.3ZM75.4,66.029A10.384,10.384,0,0,1,69.254,75.5a16.367,16.367,0,0,1-2.508.117,2.924,2.924,0,0,0-2.35.782c-.393-.04-.822-.077-1.215-.158-.077-.04-.158-.077-.235-.117a2.31,2.31,0,0,0-1.762-.47,10.41,10.41,0,0,1-6.5-9.634,10.11,10.11,0,0,1,.9-4.229c.628,2.309-.9,2.427-.9,4.229a10.856,10.856,0,0,0,1.957,4.934c1.333,2,3.055,3.719,3.682,3.565,1.134-.352-2.585-.9-.275-5.129,2.309-4.27-3.014-1.45-3.8-7.284-.275-2.115,1.175-1.487,2.232-3.055.782-1.215,2.35-1.487,2.155-2.35a8.772,8.772,0,0,1,2-.7c-.745.665-1.41,1.215.117.9,1.685-.352,2.544-.665,2.662-1.175a10.089,10.089,0,0,1,2.662.43c-.628-.077-1.8-.077-1.839.745-.077,1.134-.235,1.568-.782,1.685s-.665.275-.665.51c.04.7.7.863,1.8,0s1.41.275,2.273.47.745-.863,1.45-.587,1.568,1.8-.628,1.645c-2.192-.117-3.29-.745-4.894.077-2.273,1.134-1.88,4.5.51,4.464,1.957,0,2.508.077,3.132,2.155s-.43,2.82.668,4.424c1.1,1.685,3.682-3.014,3.6-4.582s2.038-2.309.863-4.152c-1.175-1.8.235-1.8,1.252-.745A13.063,13.063,0,0,1,75.4,66.029Z" transform="translate(0)" fill="#242424"/>
      <path id="Path_148" data-name="Path 148" d="M600.118,458.489c.547.195,1.957-2.742,1.333-2.467C600.782,456.3,599.684,458.334,600.118,458.489Z" transform="translate(-527.611 -387.919)" fill="#242424"/>
    </g>
  </g>
</svg>
