<svg xmlns="http://www.w3.org/2000/svg" width="16.481" height="16.72" viewBox="0 0 16.481 16.72">
  <g id="_172517_phone_icon" data-name="172517_phone_icon" transform="translate(0.283 0.24)">
    <rect id="Rectangle_168" data-name="Rectangle 168" width="16" height="16" transform="translate(0 0.204)" fill="none"/>
    <path id="Path_167" data-name="Path 167" d="M10.256,12.075s1.283-.749,1.619-.93a.946.946,0,0,1,.892-.1c.319.2,3,2.018,3.223,2.179a.791.791,0,0,1,.024,1.073c-.309.451-1.734,2.236-2.338,2.217s-3.119-.076-7.861-4.917S1.019,4.2,1,3.58,2.729,1.508,3.171,1.193a.762.762,0,0,1,1.052.025C4.4,1.47,6.164,4.2,6.357,4.508a.989.989,0,0,1-.093.911c-.176.343-.91,1.652-.91,1.652A15.987,15.987,0,0,0,7.622,9.759,15.882,15.882,0,0,0,10.256,12.075Z" transform="translate(-0.683 -0.639)" fill="none" stroke="#fff" stroke-miterlimit="10" stroke-width="1.2"/>
  </g>
</svg>
