<svg xmlns="http://www.w3.org/2000/svg" width="24.45" height="24.46" viewBox="0 0 24.45 24.46">
  <g id="_2739100_world_earth_global_icon" data-name="2739100_world_earth_global_icon" transform="translate(-52.3 -53.3)">
    <path id="Path_146" data-name="Path 146" d="M391.284,152.288c.339-.074-.039-.79-.339-.864-.226-.039-.638.339-.6.564S390.945,152.4,391.284,152.288Z" transform="translate(-326.118 -94.66)" fill="#fff"/>
    <path id="Path_147" data-name="Path 147" d="M64.523,53.3A12.23,12.23,0,1,0,76.75,65.53,12.252,12.252,0,0,0,64.523,53.3Zm9.97,12.23a9.978,9.978,0,0,1-5.907,9.1,15.718,15.718,0,0,1-2.409.113,2.808,2.808,0,0,0-2.257.751c-.377-.039-.79-.074-1.167-.152-.074-.039-.152-.074-.226-.113a2.219,2.219,0,0,0-1.693-.452,10,10,0,0,1-6.246-9.256,9.716,9.716,0,0,1,.864-4.064c.6,2.219-.864,2.332-.864,4.064a10.432,10.432,0,0,0,1.88,4.741c1.28,1.919,2.934,3.573,3.537,3.425,1.09-.339-2.483-.864-.264-4.928,2.218-4.1-2.9-1.393-3.65-7-.264-2.032,1.129-1.429,2.144-2.935.751-1.168,2.257-1.429,2.07-2.258a8.425,8.425,0,0,1,1.918-.677c-.716.638-1.354,1.168.113.864,1.619-.339,2.444-.638,2.557-1.129a9.69,9.69,0,0,1,2.557.413c-.6-.074-1.732-.074-1.767.716-.074,1.09-.226,1.506-.751,1.619s-.638.265-.638.49c.039.677.677.829,1.732,0s1.354.265,2.183.452.716-.829,1.393-.564,1.506,1.732-.6,1.58c-2.105-.113-3.16-.716-4.7.074-2.183,1.09-1.806,4.328.49,4.289,1.88,0,2.409.074,3.008,2.071s-.413,2.709.642,4.251c1.054,1.619,3.537-2.9,3.46-4.4s1.957-2.219.829-3.99c-1.129-1.732.226-1.732,1.2-.716A12.554,12.554,0,0,1,74.493,65.53Z" transform="translate(0)" fill="#fff"/>
    <path id="Path_148" data-name="Path 148" d="M600.114,458.391c.526.187,1.88-2.635,1.28-2.371C600.752,456.285,599.7,458.243,600.114,458.391Z" transform="translate(-528.403 -388.498)" fill="#fff"/>
  </g>
</svg>
