<svg xmlns="http://www.w3.org/2000/svg" width="20.5" height="29" viewBox="0 0 20.5 29">
  <g id="layer1" transform="translate(-5.75 -1021.862)">
    <path id="path12774" d="M8.5,1047.862v-9.5h15v4.75m0,2.375v2.375" fill="none" stroke="#fff" stroke-linecap="round" stroke-linejoin="round" stroke-width="1"/>
    <path id="path12776" d="M7.5,1050.362v-2h17v2Z" fill="none" stroke="#fff" stroke-linecap="round" stroke-linejoin="round" stroke-width="1"/>
    <path id="path12778" d="M7.5,1038.362l-1.25-2h19.5l-1.25,2Z" fill="none" stroke="#fff" stroke-linecap="round" stroke-linejoin="round" stroke-width="1"/>
    <path id="path12780" d="M16,1045.368H12.5v-4.5h7v4.5H17.75" fill="none" stroke="#fff" stroke-linecap="round" stroke-linejoin="round" stroke-width="1"/>
    <path id="path12782" d="M18.5,1025.862v3.5l-.2.234a3,3,0,0,1-4.609,0l-.2-.234v-3.5Z" fill="none" stroke="#fff" stroke-linejoin="round" stroke-width="1" fill-rule="evenodd"/>
    <path id="path12784" d="M19.98,1025.12a4.25,4.25,0,0,0-7.906-.134" fill="none" stroke="#fff" stroke-linecap="round" stroke-linejoin="round" stroke-width="1"/>
    <path id="path12786" d="M20.526,1027.581a1.25,1.25,0,0,0-.43-2.46" fill="none" stroke="#fff" stroke-linecap="round" stroke-linejoin="round" stroke-width="1"/>
    <path id="path12788" d="M18.5,1028.612a1.25,1.25,0,1,0,2.04-.969" fill="none" stroke="#fff" stroke-linecap="round" stroke-linejoin="round" stroke-width="1"/>
    <path id="path12792" d="M11.474,1027.581a1.25,1.25,0,0,1,.43-2.46" fill="none" stroke="#fff" stroke-linecap="round" stroke-linejoin="round" stroke-width="1"/>
    <path id="path12794" d="M13.5,1028.612a1.25,1.25,0,1,1-2.04-.969" fill="none" stroke="#fff" stroke-linecap="round" stroke-linejoin="round" stroke-width="1"/>
    <path id="path12798" d="M23,1036.355l-.569-2.417a5.99,5.99,0,0,0-1.823-3.08l-1.1-.991" fill="none" stroke="#fff" stroke-linecap="round" stroke-linejoin="round" stroke-width="1" fill-rule="evenodd"/>
    <path id="path12800" d="M9,1036.355l.569-2.417a5.99,5.99,0,0,1,1.823-3.08l1.1-.991" fill="none" stroke="#fff" stroke-linecap="round" stroke-linejoin="round" stroke-width="1" fill-rule="evenodd"/>
  </g>
</svg>
