<svg id="Camada_2" data-name="Camada 2" xmlns="http://www.w3.org/2000/svg" width="28.683" height="24.93" viewBox="0 0 28.683 24.93">
  <g id="Camada_1" data-name="Camada 1">
    <path id="Path_161" data-name="Path 161" d="M28.085,4.613h-8V1.793A1.793,1.793,0,0,0,18.3,0H10.386A1.793,1.793,0,0,0,8.593,1.793v2.82H.6a.6.6,0,0,0-.6.6v7.171a2.988,2.988,0,0,0,1.793,2.737v9.214a.6.6,0,0,0,.6.6h23.9a.6.6,0,0,0,.6-.6V15.118a2.988,2.988,0,0,0,1.793-2.737V5.211a.6.6,0,0,0-.6-.6Zm-18.3-2.82a.6.6,0,0,1,.6-.6h7.924a.6.6,0,0,1,.6.6v2.82H9.788ZM25.695,23.735H2.988V15.369H5.976v.717a1.793,1.793,0,0,0,1.769,1.84h1.2a1.793,1.793,0,0,0,1.817-1.84v-.717h7.171v.717a1.793,1.793,0,0,0,1.793,1.793h1.2a1.793,1.793,0,0,0,1.793-1.793v-.717h2.988ZM7.171,14.772h0V13.8h2.39v2.271a.6.6,0,0,1-.6.6h-1.2a.6.6,0,0,1-.6-.6Zm14.341,1.315a.6.6,0,0,1-.6.6h-1.2a.6.6,0,0,1-.6-.6V13.815h2.39Zm5.976-3.7a1.793,1.793,0,0,1-1.793,1.793H22.707v-.968a.6.6,0,0,0-.6-.6H18.524a.6.6,0,0,0-.6.6v.968H10.756v-.968a.6.6,0,0,0-.6-.6H6.573a.6.6,0,0,0-.6.6v.968H2.988A1.793,1.793,0,0,1,1.2,12.381V5.808H27.488Z" fill="#fff"/>
  </g>
</svg>
