<svg xmlns="http://www.w3.org/2000/svg" width="27.436" height="28.09" viewBox="0 0 27.436 28.09">
  <g id="_6714782_architecture_building_business_construction_engineer_icon" data-name="6714782_architecture_building_business_construction_engineer_icon" transform="translate(-54.142 -49.494)">
    <path id="Path_154" data-name="Path 154" d="M187.943,274.249a.372.372,0,1,0-.6-.446,2.041,2.041,0,0,1-1.5.754,2.069,2.069,0,0,1-1.5-.754.372.372,0,1,0-.6.446,2.612,2.612,0,0,0,4.19,0Z" transform="translate(-120.725 -208.916)" fill="#fff"/>
    <path id="Path_155" data-name="Path 155" d="M75.764,72.969a3.367,3.367,0,0,0-2.1-2.922L68,67.935A6.162,6.162,0,0,0,71.278,62.5V60.188a5.129,5.129,0,0,0,1.649-.73.9.9,0,0,0,.221-1.214,2.493,2.493,0,0,0-1.174-.983c-.078-1.12-.629-5.31-4.5-6.618l.054-.585a.371.371,0,0,0-.293-.4,14.5,14.5,0,0,0-4.193,0,.372.372,0,0,0-.316.4l.054.585c-3.874,1.308-4.426,5.5-4.5,6.618a2.49,2.49,0,0,0-1.174.983.9.9,0,0,0,.221,1.207,5.131,5.131,0,0,0,1.648.73v2.311a6.163,6.163,0,0,0,3.275,5.437l-5.663,2.119a3.368,3.368,0,0,0-2.1,2.922l-.34,4.2a.372.372,0,0,0,.34.4h.031a.372.372,0,0,0,.37-.34l.34-4.2a2.621,2.621,0,0,1,1.613-2.286l1.013-.377v6.829a.374.374,0,1,0,.748,0V70.088l1.542-.575.594,4.471a.373.373,0,0,0,.369.323h8.044a.373.373,0,0,0,.369-.323l.594-4.471,1.542.575v7.106a.372.372,0,1,0,.744,0V70.366l1.012.377a2.623,2.623,0,0,1,1.615,2.286l.34,4.2a.372.372,0,0,0,.371.34h.03a.372.372,0,0,0,.34-.4ZM57.722,58.644a1.694,1.694,0,0,1,1-.752A.372.372,0,0,0,59,57.532c0-.2.056-4.725,3.844-6.131l.476,5.119a.372.372,0,0,0,.741-.068L63.5,50.344a14,14,0,0,1,3.256-.02l-.57,6.129a.372.372,0,0,0,.336.408h.035a.372.372,0,0,0,.37-.34L67.4,51.4c3.789,1.407,3.844,5.933,3.844,6.131a.372.372,0,0,0,.284.361,1.7,1.7,0,0,1,1,.752.158.158,0,0,1-.039.209c-.491.362-2.185,1.2-7.362,1.223-5.176-.024-6.871-.859-7.362-1.223A.157.157,0,0,1,57.722,58.644ZM59.711,62.5V60.364a26.754,26.754,0,0,0,5.135.453.3.3,0,0,0,.043,0h.468a.3.3,0,0,0,.043,0,26.745,26.745,0,0,0,5.134-.453V62.5a5.411,5.411,0,1,1-10.823,0Zm9.107,11.068H61.424l-.573-4.317,2.285-.852a.376.376,0,0,0,.084-.044,6.158,6.158,0,0,0,3.806,0,.4.4,0,0,0,.084.044l2.285.852Z" fill="#fff"/>
    <path id="Path_156" data-name="Path 156" d="M320.455,175.248l-1.98-.823a3.185,3.185,0,1,0-3.489,0l-1.982.823a2.008,2.008,0,0,0-1.239,1.858v1.155a.372.372,0,1,0,.744,0v-1.155a1.263,1.263,0,0,1,.781-1.17l2.629-1.093a3.187,3.187,0,0,0,1.62,0l2.629,1.093a1.263,1.263,0,0,1,.781,1.17v1.155a.372.372,0,1,0,.744,0v-1.155A2.008,2.008,0,0,0,320.455,175.248Zm-6.165-3.486a2.44,2.44,0,1,1,2.44,2.44A2.44,2.44,0,0,1,314.29,171.763Z" transform="translate(-240.115 -110.99)" fill="#fff"/>
    <path id="Path_157" data-name="Path 157" d="M174.709,223.371a.372.372,0,0,0-.744,0v1.073a.372.372,0,1,0,.744,0Z" transform="translate(-111.68 -161.728)" fill="#fff"/>
    <path id="Path_158" data-name="Path 158" d="M246.846,224.579a.372.372,0,0,0,.372-.372v-1.073a.374.374,0,0,0-.748,0v1.073a.372.372,0,0,0,.376.372Z" transform="translate(-179.258 -161.491)" fill="#fff"/>
  </g>
</svg>
