<svg xmlns="http://www.w3.org/2000/svg" width="26.368" height="26.369" viewBox="0 0 26.368 26.369">
  <g id="_1" data-name="1" transform="translate(-56 -48)">
    <path id="Path_159" data-name="Path 159" d="M78.5,122.023H59.87a3.874,3.874,0,0,1-3.87-3.87v-9.511a3.874,3.874,0,0,1,3.87-3.87h6.55a1.9,1.9,0,0,0,1.9-1.9h0A3.874,3.874,0,0,1,72.192,99H78.5a3.874,3.874,0,0,1,3.87,3.87v15.283A3.875,3.875,0,0,1,78.5,122.023ZM59.87,106.74a1.9,1.9,0,0,0-1.9,1.9v9.511a1.9,1.9,0,0,0,1.9,1.9H78.5a1.9,1.9,0,0,0,1.9-1.9V102.87a1.9,1.9,0,0,0-1.9-1.9H72.192a1.9,1.9,0,0,0-1.9,1.9,3.875,3.875,0,0,1-3.87,3.87Z" transform="translate(0 -47.655)" fill="#fff"/>
    <path id="Path_160" data-name="Path 160" d="M106.984,59.085A.984.984,0,0,1,106,58.1V48.984a.984.984,0,0,1,.984-.984h17.841a.984.984,0,0,1,.984.984v3.345a.984.984,0,1,1-1.968,0V49.968H107.968V58.1A.984.984,0,0,1,106.984,59.085Z" transform="translate(-46.72 0)" fill="#fff"/>
  </g>
</svg>
