<svg xmlns="http://www.w3.org/2000/svg" width="33" height="33" viewBox="0 0 33 33">
  <g id="_9026134_users_three_icon" data-name="9026134_users_three_icon" transform="translate(0 0.164)">
    <rect id="Rectangle_15" data-name="Rectangle 15" width="33" height="33" transform="translate(0 -0.164)" fill="none"/>
    <ellipse id="Ellipse_9" data-name="Ellipse 9" cx="5.5" cy="5" rx="5.5" ry="5" transform="translate(11 12.836)" fill="none" stroke="#fff" stroke-linecap="round" stroke-linejoin="round" stroke-width="2"/>
    <path id="Path_149" data-name="Path 149" d="M196,116a7.691,7.691,0,0,1,6.174,3.087" transform="translate(-170.791 -101.17)" fill="none" stroke="#fff" stroke-linecap="round" stroke-linejoin="round" stroke-width="2"/>
    <path id="Path_150" data-name="Path 150" d="M12,119.087A7.691,7.691,0,0,1,18.174,116" transform="translate(-10.457 -101.17)" fill="none" stroke="#fff" stroke-linecap="round" stroke-linejoin="round" stroke-width="2"/>
    <path id="Path_151" data-name="Path 151" d="M70.4,184.653a8.244,8.244,0,0,1,14.817,0" transform="translate(-61.345 -156.961)" fill="none" stroke="#fff" stroke-linecap="round" stroke-linejoin="round" stroke-width="2"/>
    <path id="Path_152" data-name="Path 152" d="M32.087,60.229a4.116,4.116,0,1,1,4.039-4.887" transform="translate(-24.37 -45.399)" fill="none" stroke="#fff" stroke-linecap="round" stroke-linejoin="round" stroke-width="2"/>
    <path id="Path_153" data-name="Path 153" d="M164.6,55.342a4.116,4.116,0,1,1,4.039,4.887" transform="translate(-143.43 -45.399)" fill="none" stroke="#fff" stroke-linecap="round" stroke-linejoin="round" stroke-width="2"/>
  </g>
</svg>
