<svg xmlns="http://www.w3.org/2000/svg" width="28" height="27.493" viewBox="0 0 28 27.493">
  <g id="layer1" transform="translate(-2 -1022.869)">
    <path id="rect11359" d="M10,1047.862H22v2H10Z" fill="none" stroke="#fff" stroke-linejoin="round" stroke-width="1"/>
    <path id="path11361" d="M14.5,1047.862v-4a1,1,0,0,1,1-1h1a1,1,0,0,1,1,1v4" fill="none" stroke="#fff" stroke-linejoin="round" stroke-width="1"/>
    <path id="circle11363" d="M17.5,1026.362a1.5,1.5,0,1,1-1.5-1.5,1.5,1.5,0,0,1,1.5,1.5Z" fill="none" stroke="#fff" stroke-linejoin="round" stroke-width="1"/>
    <path id="path11365" d="M16,1037.112v5.493" fill="none" stroke="#fff" stroke-linecap="round" stroke-linejoin="round" stroke-width="1" fill-rule="evenodd"/>
    <path id="path11367" d="M16,1023.369v1.486" fill="none" stroke="#fff" stroke-linecap="round" stroke-linejoin="round" stroke-width="1" fill-rule="evenodd"/>
    <path id="path11369" d="M14.5,1026.362H6l-3.5,11v.75a3.25,3.25,0,0,0,3.25,3.25h0a3.25,3.25,0,0,0,3.25-3.25v-.75l-3-11" fill="none" stroke="#fff" stroke-linejoin="round" stroke-width="1" fill-rule="evenodd"/>
    <path id="path11371" d="M2.5,1037.862H9" fill="none" stroke="#fff" stroke-width="1" fill-rule="evenodd"/>
    <path id="path11373" d="M17.5,1026.362H26l3.5,11v.75a3.25,3.25,0,0,1-3.25,3.25h0a3.25,3.25,0,0,1-3.25-3.25v-.75l3-11" fill="none" stroke="#fff" stroke-linejoin="round" stroke-width="1" fill-rule="evenodd"/>
    <path id="path11375" d="M23,1037.862h6.5" fill="none" stroke="#fff" stroke-width="1" fill-rule="evenodd"/>
    <path id="path14327" d="M16,1028.119v5.493" fill="none" stroke="#fff" stroke-linecap="round" stroke-linejoin="round" stroke-width="1" fill-rule="evenodd"/>
    <path id="path12564-3" d="M16.5,1035.362a.5.5,0,1,1-.5-.5A.5.5,0,0,1,16.5,1035.362Z" fill="#fff"/>
  </g>
</svg>
