<svg xmlns="http://www.w3.org/2000/svg" width="64.298" height="76.942" viewBox="0 0 64.298 76.942">
  <g id="AHMED" transform="translate(0 0.002)">
    <g id="Group_1" data-name="Group 1" transform="translate(2.61 -0.002)">
      <path id="Path_1" data-name="Path 1" d="M26.227,99.89a3.734,3.734,0,0,0,1.32-2.549,6.888,6.888,0,0,0-.093-2.019c-.145-.568-.2-1-.326-1.024-.1-.02-.5.284-.944.793a5.894,5.894,0,0,0-1.046,1.952,3.027,3.027,0,0,0-.133.936,3.621,3.621,0,0,0,.166.825,2.477,2.477,0,0,0,.612,1.062s.163-1.273.395-2.443c.32-1.209.66-2.3.66-2.3s-.229,1.109-.44,2.323c-.1,1.17-.172,2.438-.172,2.438Z" transform="translate(-20.076 -66.703)" fill="#fdb42b"/>
      <path id="Path_2" data-name="Path 2" d="M22.378,85.018a3.809,3.809,0,0,0,1.815-2.25,5.576,5.576,0,0,0,.184-3.07,2.323,2.323,0,0,0-1.07.6,6.216,6.216,0,0,0-1.42,1.721,2.8,2.8,0,0,0-.32,1.735,2.442,2.442,0,0,0,.383,1.159s.431-1.22.877-2.32c.561-1.127,1.118-2.133,1.118-2.133s-.461,1.048-.9,2.2C22.7,83.786,22.378,85.018,22.378,85.018Z" transform="translate(-17.659 -56.373)" fill="#fdb42b"/>
      <path id="Path_3" data-name="Path 3" d="M50.351,16.781c-.434.1-1.034.222-1.64.375l-1.64.509c-.446.158-.739.284-.739.284a2.9,2.9,0,0,0,1.191.334,4.079,4.079,0,0,0,1.733-.14,7.9,7.9,0,0,0,1.875-.875c.525-.3.865-.588.847-.691a2.3,2.3,0,0,0-1.106-.515,5.628,5.628,0,0,0-2.273-.2,3.206,3.206,0,0,0-1.664.711,2.071,2.071,0,0,0-.766.963l.211-.064a5.634,5.634,0,0,1,.564-.152c.476-.111,1.094-.252,1.7-.375.612-.085,1.227-.167,1.685-.231a7.363,7.363,0,0,1,.76-.059l-.205.029a4.854,4.854,0,0,0-.537.1Z" transform="translate(-34.861 -11.192)" fill="#fdb42b"/>
      <path id="Path_4" data-name="Path 4" d="M35.65,28.7s.292-.138.733-.348.992-.477,1.595-.682,1.149-.43,1.6-.55l.736-.2-.705.26c-.428.158-.959.421-1.525.682s-1.082.582-1.507.808-.684.4-.684.4a4.067,4.067,0,0,0,2.912-.36c1.263-.67,2.43-1.849,2.358-2.051a2.244,2.244,0,0,0-1.179-.29,5.746,5.746,0,0,0-2.27.231,3.088,3.088,0,0,0-2.059,2.1Z" transform="translate(-27.513 -18.642)" fill="#fdb42b"/>
      <path id="Path_5" data-name="Path 5" d="M25.938,52.262c-.3.316-.766.732-1.149,1.191s-.8.933-1.082,1.305c-.268.38-.449.632-.449.632A4.112,4.112,0,0,0,25.8,53.976a8.219,8.219,0,0,0,1.058-1.735c.25-.533.395-.951.314-1.027a5.033,5.033,0,0,0-3.226,1.214,2.925,2.925,0,0,0-1.058,2.7s.205-.24.509-.6c.332-.334.772-.778,1.212-1.22s.935-.811,1.272-1.1l.416-.339c.109-.076.169-.12.169-.12l-.154.135c-.09.091-.223.219-.38.372Z" transform="translate(-18.558 -36.202)" fill="#fdb42b"/>
      <path id="Path_6" data-name="Path 6" d="M32.338,39.253c.335-.489.561-.869.506-.957a2.353,2.353,0,0,0-1.233-.073,6.4,6.4,0,0,0-2.183.653,3.656,3.656,0,0,0-1.263,1.27,2.455,2.455,0,0,0-.314,1.182l.636-.486a15.977,15.977,0,0,1,1.432-.969c.259-.161.522-.322.766-.471s.494-.26.7-.366c.4-.2.669-.339.669-.339l-.627.4c-.19.123-.416.266-.654.421s-.467.351-.711.533-.494.377-.724.553-.419.369-.594.524c-.353.316-.585.527-.585.527a4.124,4.124,0,0,0,2.789-.9,5.3,5.3,0,0,0,.76-.746,6.467,6.467,0,0,0,.636-.752Z" transform="translate(-22.063 -27.015)" fill="#fdb42b"/>
      <path id="Path_7" data-name="Path 7" d="M20.937,69.807s.163-.275.41-.685a16.363,16.363,0,0,1,.932-1.428c.371-.5.724-.977,1.01-1.32.3-.337.5-.559.5-.559s-.178.237-.443.594c-.247.366-.552.869-.874,1.39-.6,1.042-1.128,2.192-1.128,2.192a3.907,3.907,0,0,0,2.216-1.87,7.575,7.575,0,0,0,.705-1.9c.151-.571.172-1.012.084-1.071a2.261,2.261,0,0,0-1.149.4A5.387,5.387,0,0,0,21.45,66.96a2.977,2.977,0,0,0-.513,2.85Z" transform="translate(-17.12 -46.074)" fill="#fdb42b"/>
      <path id="Path_8" data-name="Path 8" d="M42.086,126.934a3.7,3.7,0,0,0,.22-2.85,5.962,5.962,0,0,0-1.595-2.654,2.309,2.309,0,0,0-.558,1.086,5.851,5.851,0,0,0-.2,2.192,2.867,2.867,0,0,0,.73,1.615,2.533,2.533,0,0,0,.977.758s-.338-1.249-.6-2.408c-.181-1.235-.3-2.37-.3-2.37s.217,1.118.513,2.309c.365,1.121.8,2.323.8,2.323Z" transform="translate(-30.5 -85.896)" fill="#fdb42b"/>
      <path id="Path_9" data-name="Path 9" d="M77.516,152.073c.488.377.977.758,1.345,1.039l.461.348.181.117a3.861,3.861,0,0,0-1.444-2.49,4.99,4.99,0,0,0-.443-.293c-.148-.108-.3-.208-.449-.3a6.547,6.547,0,0,0-.886-.451c-.561-.214-.989-.357-1.064-.293a2.119,2.119,0,0,0,.16,1.191,6.169,6.169,0,0,0,1.082,1.943,3.294,3.294,0,0,0,2.777,1.056s-.992-.866-1.866-1.7c-.437-.43-.829-.919-1.121-1.252s-.473-.565-.473-.565l.522.515c.323.3.745.761,1.218,1.132Z" transform="translate(-55.125 -105.92)" fill="#fdb42b"/>
      <path id="Path_10" data-name="Path 10" d="M92.206,155.07a9.111,9.111,0,0,0-1.957-.691c-.6-.1-1.04-.164-1.1-.085a2.152,2.152,0,0,0,.395,1.138A6.193,6.193,0,0,0,91,157.127a3.061,3.061,0,0,0,1.691.638,2.588,2.588,0,0,0,1.245-.132s-1.149-.655-2.174-1.3c-1.028-.734-1.932-1.481-1.932-1.481l.618.4c.377.234.886.594,1.423.884,1.073.547,2.255,1.106,2.255,1.106A3.83,3.83,0,0,0,92.206,155.07Z" transform="translate(-64.874 -109.119)" fill="#fdb42b"/>
      <path id="Path_11" data-name="Path 11" d="M32.617,111.611c.136,1.168.323,2.426.323,2.426a3.7,3.7,0,0,0,.784-2.754,6.959,6.959,0,0,0-.5-1.961c-.253-.533-.4-.945-.525-.942-.106,0-.434.375-.763.957a5.689,5.689,0,0,0-.633,2.113,2.848,2.848,0,0,0,.063.942,3.86,3.86,0,0,0,.326.781,2.5,2.5,0,0,0,.811.925s-.09-1.285-.1-2.473c.069-1.244.181-2.376.181-2.376s0,1.132.036,2.361Z" transform="translate(-24.468 -76.665)" fill="#fdb42b"/>
      <path id="Path_12" data-name="Path 12" d="M52,5.532l.739-.509c.437-.31,1.076-.647,1.688-1.018.627-.345,1.281-.644,1.758-.887.491-.217.826-.345.826-.345s-.32.155-.79.413c-.452.284-1.073.632-1.661,1.024-.573.418-1.167.8-1.571,1.141s-.678.559-.678.559a3.041,3.041,0,0,0,1.354-.059,4.164,4.164,0,0,0,1.758-.764,8.207,8.207,0,0,0,2.563-2.759c-.069-.208-2.3-.3-3.97.527a4.4,4.4,0,0,0-1.553,1.381,2.678,2.678,0,0,0-.455,1.3Z" transform="translate(-38.933 -1.546)" fill="#fdb42b"/>
      <path id="Path_13" data-name="Path 13" d="M64.12,145.25c.4.462.8.928,1.109,1.276.16.178.289.325.383.43l.157.146a3.827,3.827,0,0,0-.913-2.715c-.241-.249-.5-.509-.757-.755a6.81,6.81,0,0,0-.781-.609c-.509-.313-.892-.544-.983-.492a2.168,2.168,0,0,0-.084,1.2,6.063,6.063,0,0,0,.672,2.11,3.01,3.01,0,0,0,1.311,1.217,2.534,2.534,0,0,0,1.2.345s-.8-1.036-1.489-2.016c-.338-.509-.627-1.059-.847-1.44s-.353-.641-.353-.641l.41.6c.256.354.582.884.968,1.343Z" transform="translate(-46.074 -100.818)" fill="#fdb42b"/>
      <path id="Path_14" data-name="Path 14" d="M51.944,135.969c.3.53.606,1.059.835,1.457l.289.492a1.638,1.638,0,0,0,.121.178,3.75,3.75,0,0,0-.353-2.838,6.1,6.1,0,0,0-2.1-2.3,2.217,2.217,0,0,0-.326,1.168,5.977,5.977,0,0,0,.244,2.192,2.928,2.928,0,0,0,1.04,1.446,2.576,2.576,0,0,0,1.106.565s-.576-1.165-1.058-2.256c-.434-1.168-.763-2.271-.763-2.271s.115.266.283.667.4.966.681,1.5Z" transform="translate(-37.813 -94.05)" fill="#fdb42b"/>
      <path id="Path_15" data-name="Path 15" d="M29.868,136.191s-1.206-.541-2.475-1.162c-1.188-.673-2.409-1.454-2.409-1.454s1.281.676,2.5,1.252c1.308.518,2.541.942,2.541.942a2.678,2.678,0,0,0-.708-1.045,5.765,5.765,0,0,0-1.559-1.021,11,11,0,0,0-2.367-.638c-.693-.14-1.236-.181-1.29-.088-.154.2,1.118,2.063,2.632,2.953a3.454,3.454,0,0,0,3.141.255Z" transform="translate(-19.436 -94.03)" fill="#fdb42b"/>
      <path id="Path_16" data-name="Path 16" d="M20.586,120.42s-1.076-.755-2.2-1.6c-1.019-.892-2.071-1.884-2.071-1.884s1.124.907,2.207,1.7c1.17.761,2.3,1.4,2.3,1.4a2.611,2.611,0,0,0-.491-1.156,4.243,4.243,0,0,0-.576-.664,5.1,5.1,0,0,0-.748-.635,11.386,11.386,0,0,0-2.192-1.074c-.654-.269-1.176-.413-1.251-.331a2.346,2.346,0,0,0,.425,1.329,7.96,7.96,0,0,0,1.559,2.072,3.465,3.465,0,0,0,3.033.843Z" transform="translate(-13.473 -82.162)" fill="#fdb42b"/>
      <path id="Path_17" data-name="Path 17" d="M42.031,149.655a1.81,1.81,0,0,1-.229-.044l-.591-.146-1.839-.483c-.666-.2-1.308-.465-1.815-.65s-.838-.325-.838-.325,1.384.433,2.7.758c1.384.263,2.674.454,2.674.454a2.711,2.711,0,0,0-.9-.893,5.77,5.77,0,0,0-1.733-.708,10.809,10.809,0,0,0-2.445-.181c-.718,0-1.248.056-1.287.161-.112.225,1.507,1.814,3.175,2.4a3.41,3.41,0,0,0,3.132-.339Z" transform="translate(-27.563 -104.289)" fill="#fdb42b"/>
      <path id="Path_18" data-name="Path 18" d="M73.074,165.774l-.229.05c-.145.02-.353.05-.6.082l-1.89.234c-.7.079-1.393.056-1.935.076l-.9.009.892-.079c.534-.059,1.218-.1,1.9-.222,1.384-.266,2.65-.568,2.65-.568a2.812,2.812,0,0,0-1.185-.495,5.627,5.627,0,0,0-1.884-.006,10.668,10.668,0,0,0-2.33.729c-.675.29-1.134.518-1.131.635s.509.421,1.272.635a10.963,10.963,0,0,0,1.254.31c.223.041.449.076.675.1a6.584,6.584,0,0,0,.681-.012A3.331,3.331,0,0,0,73.074,165.774Z" transform="translate(-49.013 -116.56)" fill="#fdb42b"/>
      <path id="Path_19" data-name="Path 19" d="M56.616,159.532s-.087,0-.235.006l-.609-.035c-.519-.035-1.209-.082-1.9-.132s-1.378-.211-1.911-.293l-.886-.161s.356.038.892.091,1.218.126,1.908.143c1.411,0,2.713-.056,2.713-.056a2.759,2.759,0,0,0-1.061-.708,5.558,5.558,0,0,0-1.845-.363,10.706,10.706,0,0,0-2.433.275c-.711.146-1.215.29-1.233.4-.063.24,1.845,1.5,3.6,1.75a3.363,3.363,0,0,0,3.006-.925Z" transform="translate(-37.547 -111.782)" fill="#fdb42b"/>
      <path id="Path_20" data-name="Path 20" d="M42.5,4.873c.232-.451.54-1.051.847-1.65.341-.585.711-1.17.995-1.618.139-.228.268-.4.359-.524s.142-.2.142-.2-.193.287-.437.749-.558,1.077-.847,1.674c-.268.626-.516,1.244-.693,1.7a5.833,5.833,0,0,0-.2.559c-.042.138-.069.214-.069.214a3.452,3.452,0,0,0,1.058-.705A5.126,5.126,0,0,0,44.7,3.56c.591-1.478.929-3.427.733-3.555a3.077,3.077,0,0,0-1.257.67,7.751,7.751,0,0,0-1.773,1.9,3.8,3.8,0,0,0-.537,1.835,2.359,2.359,0,0,0,.3,1.229s.121-.31.329-.764Z" transform="translate(-31.857 0.002)" fill="#fdb42b"/>
      <path id="Path_21" data-name="Path 21" d="M86.332,169.585l-.883.181s1.4-.38,2.68-.822c1.3-.53,2.484-1.071,2.484-1.071a2.821,2.821,0,0,0-1.26-.255,5.741,5.741,0,0,0-1.848.351,10.4,10.4,0,0,0-2.137,1.162c-.6.41-1.007.72-.98.834.036.252,2.3.682,4.013.278a3.332,3.332,0,0,0,2.409-1.963s-1.245.439-2.6.866c-.669.2-1.354.316-1.881.436Z" transform="translate(-61.556 -118.569)" fill="#fdb42b"/>
      <path id="Path_22" data-name="Path 22" d="M12.088,66.669s-.5-1.209-.9-2.517c-.181-.65-.368-1.32-.485-1.829-.1-.512-.16-.852-.16-.852s.09.331.229.831c.154.495.4,1.144.633,1.767.214.623.543,1.232.742,1.677l.356.729a3.959,3.959,0,0,0-.109-3.017A13.573,13.573,0,0,0,11.2,61.39c-.413-.582-.781-.983-.886-.954a2.853,2.853,0,0,0-.389,1.337,7.254,7.254,0,0,0,.115,2.56,3.3,3.3,0,0,0,2.053,2.332Z" transform="translate(-9.494 -42.75)" fill="#fdb42b"/>
      <path id="Path_23" data-name="Path 23" d="M15.3,48.946l-.166-.813c-.081-.489-.154-1.147-.232-1.829s-.072-1.355-.1-1.882c-.006-.263-.012-.483-.015-.635s.009-.24.009-.24,0,.085.012.237.039.369.066.629c.066.518.121,1.188.25,1.852s.271,1.311.38,1.782c.139.474.232.79.232.79a4.084,4.084,0,0,0,.479-2.985c-.332-1.542-1.194-3.359-1.411-3.353a2.745,2.745,0,0,0-.666,1.232,7.119,7.119,0,0,0-.389,2.54A3.169,3.169,0,0,0,15.3,48.949Z" transform="translate(-12.207 -30.063)" fill="#fdb42b"/>
      <path id="Path_24" data-name="Path 24" d="M21.5,32.453s.009-.328.021-.822c.009-.252.021-.544.033-.86.033-.313.069-.647.1-.98s.081-.682.118-1c.06-.316.115-.612.163-.863.1-.515.172-.857.172-.857s-.039.345-.1.86c-.027.255-.057.55-.087.866-.012.319-.021.658-.033,1a16.966,16.966,0,0,0,.018,1.823c.033.489.054.813.054.813a2.6,2.6,0,0,0,.687-1.051,4.027,4.027,0,0,0,.383-1.788,10.366,10.366,0,0,0-.28-2.353c-.154-.691-.311-1.182-.425-1.2s-.516.41-.889,1.089a10.3,10.3,0,0,0-.564,1.13,7.739,7.739,0,0,0-.338,1.282,3.353,3.353,0,0,0,.232,1.9,2.35,2.35,0,0,0,.739,1.018Z" transform="translate(-16.919 -18.419)" fill="#fdb42b"/>
      <path id="Path_25" data-name="Path 25" d="M30.776,17.014c.133-.474.268-1.15.5-1.779s.437-1.305.645-1.779.35-.8.35-.8-.112.328-.28.816-.326,1.165-.488,1.808-.259,1.314-.344,1.794l-.121.8a4.044,4.044,0,0,0,1.637-2.569,12.527,12.527,0,0,0,.193-2.361c-.012-.708-.09-1.241-.193-1.27a6.456,6.456,0,0,0-2.454,3.1,3.162,3.162,0,0,0,.371,3.046s.063-.322.187-.8Z" transform="translate(-23.573 -8.255)" fill="#fdb42b"/>
      <path id="Path_26" data-name="Path 26" d="M11.773,84.984s-.693-1.1-1.4-2.3c-.594-1.2-1.164-2.508-1.164-2.508s.675,1.252,1.354,2.388c.793,1.135,1.577,2.154,1.577,2.154a2.584,2.584,0,0,0,0-1.249,5.58,5.58,0,0,0-.711-1.688,10.269,10.269,0,0,0-1.6-1.805c-.519-.492-.935-.816-1.037-.767-.241.085-.226,2.315.506,3.871a3.375,3.375,0,0,0,2.466,1.908Z" transform="translate(-8.658 -56.026)" fill="#fdb42b"/>
      <path id="Path_27" data-name="Path 27" d="M14.529,103.122s-.9-.945-1.836-1.99c-.817-1.068-1.649-2.241-1.649-2.241s.919,1.1,1.821,2.086c.992.969,1.978,1.814,1.978,1.814a2.637,2.637,0,0,0-.25-1.226,4.148,4.148,0,0,0-.431-.758,4.636,4.636,0,0,0-.6-.764,11.127,11.127,0,0,0-1.935-1.469c-.585-.389-1.07-.629-1.158-.562a2.285,2.285,0,0,0,.151,1.381,7.891,7.891,0,0,0,1.109,2.329,3.44,3.44,0,0,0,2.81,1.4Z" transform="translate(-9.886 -69.324)" fill="#fdb42b"/>
      <path id="Path_28" data-name="Path 28" d="M181.506,66.952a5.464,5.464,0,0,0-1.755-1.416,2.336,2.336,0,0,0-1.149-.4c-.087.059-.063.5.084,1.071a7.574,7.574,0,0,0,.705,1.9,3.9,3.9,0,0,0,2.216,1.87s-.528-1.15-1.128-2.192c-.323-.521-.63-1.024-.874-1.39-.265-.357-.443-.594-.443-.594l.5.559c.286.342.639.822,1.01,1.32a16.813,16.813,0,0,1,.932,1.428c.247.41.41.685.41.685a2.969,2.969,0,0,0-.512-2.85Z" transform="translate(-127.333 -46.07)" fill="#fdb42b"/>
      <path id="Path_29" data-name="Path 29" d="M175.36,52.219c.338.287.832.67,1.272,1.1.44.445.883.89,1.212,1.22.307.36.509.6.509.6a2.921,2.921,0,0,0-1.058-2.7,5.007,5.007,0,0,0-3.226-1.214c-.078.076.063.495.314,1.027a8.219,8.219,0,0,0,1.058,1.735,4.112,4.112,0,0,0,2.544,1.413s-.181-.252-.449-.632c-.283-.372-.693-.846-1.082-1.305s-.847-.878-1.149-1.191c-.157-.155-.286-.284-.38-.372s-.154-.135-.154-.135.06.044.169.12l.416.339Z" transform="translate(-124.188 -36.206)" fill="#fdb42b"/>
      <path id="Path_30" data-name="Path 30" d="M159.79,28.718a4.083,4.083,0,0,0,2.912.36s-.268-.173-.684-.4-.932-.556-1.507-.808-1.1-.524-1.528-.682-.705-.26-.705-.26l.736.2c.449.12,1,.337,1.6.55s1.152.486,1.595.682.733.348.733.348a3.093,3.093,0,0,0-2.059-2.1,5.746,5.746,0,0,0-2.27-.231,2.233,2.233,0,0,0-1.179.29C157.36,26.868,158.527,28.05,159.79,28.718Z" transform="translate(-112.579 -18.642)" fill="#fdb42b"/>
      <path id="Path_31" data-name="Path 31" d="M168.088,40a5.3,5.3,0,0,0,.76.746,4.109,4.109,0,0,0,2.789.9s-.235-.211-.585-.527c-.175-.152-.377-.331-.594-.524-.232-.176-.476-.366-.724-.553s-.482-.363-.711-.533-.461-.3-.654-.421l-.627-.4s.268.135.669.339c.205.108.443.231.7.366l.766.471a15.977,15.977,0,0,1,1.432.969c.383.29.636.486.636.486a2.428,2.428,0,0,0-.314-1.182,3.632,3.632,0,0,0-1.263-1.27,6.275,6.275,0,0,0-2.183-.653,2.353,2.353,0,0,0-1.233.073c-.054.088.172.465.506.957a6.779,6.779,0,0,0,.636.752Z" transform="translate(-119.225 -27.015)" fill="#fdb42b"/>
      <path id="Path_32" data-name="Path 32" d="M159.322,5.075a3.488,3.488,0,0,0,1.058.705s-.024-.079-.066-.214a5.833,5.833,0,0,0-.2-.559c-.178-.454-.422-1.071-.693-1.7-.292-.6-.606-1.209-.847-1.674a8.446,8.446,0,0,0-.437-.749l.142.2c.09.123.22.3.359.524.28.448.651,1.033.995,1.618.307.6.615,1.2.847,1.65.211.454.329.764.329.764a2.381,2.381,0,0,0,.3-1.229,3.812,3.812,0,0,0-.537-1.835A7.751,7.751,0,0,0,158.8.674,3.059,3.059,0,0,0,157.541,0c-.2.126.142,2.078.73,3.555a5.121,5.121,0,0,0,1.049,1.513Z" transform="translate(-112.617 0.002)" fill="#fdb42b"/>
      <path id="Path_33" data-name="Path 33" d="M173.721,17.875l-.121-.8c-.084-.48-.169-1.156-.344-1.794s-.32-1.326-.488-1.808-.28-.816-.28-.816.139.319.35.8.422,1.144.645,1.779.368,1.308.5,1.779.187.8.187.8a3.162,3.162,0,0,0,.371-3.046,6.456,6.456,0,0,0-2.454-3.1c-.1.029-.181.565-.193,1.27a12.528,12.528,0,0,0,.193,2.361,4.033,4.033,0,0,0,1.637,2.569Z" transform="translate(-122.681 -8.255)" fill="#fdb42b"/>
      <path id="Path_34" data-name="Path 34" d="M142.109,5.065a4.218,4.218,0,0,0,1.758.764,3,3,0,0,0,1.354.059s-.271-.222-.678-.559-1-.723-1.571-1.141c-.588-.392-1.209-.743-1.661-1.024-.467-.258-.79-.413-.79-.413s.335.129.826.345c.476.243,1.128.544,1.758.887.609.372,1.248.708,1.688,1.018s.739.509.739.509a2.678,2.678,0,0,0-.455-1.3,4.4,4.4,0,0,0-1.553-1.381c-1.667-.825-3.9-.737-3.97-.527a8.207,8.207,0,0,0,2.563,2.759Z" transform="translate(-100.089 -1.527)" fill="#fdb42b"/>
      <path id="Path_35" data-name="Path 35" d="M183.549,32.413s.021-.325.054-.813a16.971,16.971,0,0,0,.018-1.823c-.012-.339-.024-.679-.033-1-.033-.316-.063-.612-.087-.866-.06-.518-.1-.86-.1-.86s.069.342.172.857c.048.252.1.547.163.863.036.319.078.661.118,1s.069.667.106.98c.012.313.024.609.033.86.012.495.021.822.021.822a2.332,2.332,0,0,0,.739-1.018,3.382,3.382,0,0,0,.232-1.9,7.383,7.383,0,0,0-.338-1.282,10.568,10.568,0,0,0-.564-1.13c-.374-.679-.781-1.1-.889-1.089s-.271.506-.425,1.2a10.2,10.2,0,0,0-.28,2.353,4,4,0,0,0,.383,1.788,2.6,2.6,0,0,0,.687,1.051Z" transform="translate(-130.082 -18.404)" fill="#fdb42b"/>
      <path id="Path_36" data-name="Path 36" d="M149.243,16.945c.6.123,1.224.263,1.7.375a5.634,5.634,0,0,1,.564.152l.211.064a2.043,2.043,0,0,0-.766-.963,3.206,3.206,0,0,0-1.664-.711,5.633,5.633,0,0,0-2.273.2,2.327,2.327,0,0,0-1.106.515c-.018.1.323.4.847.691a7.9,7.9,0,0,0,1.875.875,4.079,4.079,0,0,0,1.733.14,2.838,2.838,0,0,0,1.191-.334s-.292-.123-.739-.284c-.449-.138-1.043-.325-1.64-.509-.606-.152-1.2-.278-1.64-.375-.214-.053-.4-.076-.537-.1l-.2-.029a6.512,6.512,0,0,1,.76.059c.461.061,1.073.146,1.685.231Z" transform="translate(-104.531 -11.192)" fill="#fdb42b"/>
      <path id="Path_37" data-name="Path 37" d="M189.679,48.821s.093-.316.232-.79c.109-.471.247-1.118.38-1.782s.184-1.331.25-1.852c.027-.26.051-.477.066-.629s.012-.237.012-.237,0,.088.009.24-.009.372-.015.635c-.024.527-.015,1.2-.1,1.882s-.151,1.34-.232,1.829l-.166.813a3.165,3.165,0,0,0,1.547-2.677,6.988,6.988,0,0,0-.389-2.54,2.745,2.745,0,0,0-.666-1.232c-.217-.006-1.079,1.811-1.411,3.353a4.084,4.084,0,0,0,.479,2.985Z" transform="translate(-134.708 -30.049)" fill="#fdb42b"/>
      <path id="Path_38" data-name="Path 38" d="M191.671,81.763a5.689,5.689,0,0,0-.711,1.688,2.584,2.584,0,0,0,0,1.249s.787-1.018,1.577-2.154c.678-1.135,1.354-2.388,1.354-2.388s-.567,1.305-1.164,2.508c-.7,1.2-1.4,2.3-1.4,2.3a3.37,3.37,0,0,0,2.466-1.908c.733-1.557.748-3.787.506-3.871-.1-.05-.519.275-1.037.767a10.268,10.268,0,0,0-1.6,1.805Z" transform="translate(-135.95 -56.012)" fill="#fdb42b"/>
      <path id="Path_39" data-name="Path 39" d="M192.3,63.476a3.945,3.945,0,0,0-.109,3.017l.356-.729c.2-.442.528-1.051.742-1.677.232-.623.476-1.273.633-1.767.139-.5.229-.831.229-.831s-.063.342-.16.852c-.121.509-.308,1.179-.485,1.829-.407,1.305-.9,2.517-.9,2.517a3.3,3.3,0,0,0,2.053-2.332,7.326,7.326,0,0,0,.115-2.56,2.838,2.838,0,0,0-.389-1.337c-.106-.029-.473.372-.886.954a13.326,13.326,0,0,0-1.191,2.069Z" transform="translate(-136.69 -42.764)" fill="#fdb42b"/>
      <path id="Path_40" data-name="Path 40" d="M173.989,113.173a3.8,3.8,0,0,0,.329-.781,2.931,2.931,0,0,0,.063-.942,5.672,5.672,0,0,0-.633-2.113c-.332-.585-.66-.96-.763-.957-.124,0-.274.41-.525.942a6.959,6.959,0,0,0-.5,1.961,3.687,3.687,0,0,0,.784,2.754s.184-1.258.323-2.426c.039-1.229.036-2.361.036-2.361s.115,1.132.181,2.376c-.012,1.191-.1,2.473-.1,2.473a2.5,2.5,0,0,0,.811-.925Z" transform="translate(-122.708 -76.665)" fill="#fdb42b"/>
      <path id="Path_41" data-name="Path 41" d="M182.559,84.906a2.43,2.43,0,0,0,.383-1.159,2.778,2.778,0,0,0-.32-1.735,6.2,6.2,0,0,0-1.42-1.721,2.323,2.323,0,0,0-1.07-.6,5.577,5.577,0,0,0,.184,3.07,3.809,3.809,0,0,0,1.815,2.25s-.329-1.232-.663-2.359c-.443-1.15-.9-2.2-.9-2.2s.558,1.007,1.118,2.133c.449,1.1.877,2.32.877,2.32Z" transform="translate(-128.344 -56.366)" fill="#fdb42b"/>
      <path id="Path_42" data-name="Path 42" d="M179.625,99.876a2.477,2.477,0,0,0,.612-1.062,3.685,3.685,0,0,0,.166-.825,3.114,3.114,0,0,0-.13-.936,5.84,5.84,0,0,0-1.046-1.952c-.443-.509-.841-.816-.944-.793-.124.018-.181.454-.326,1.024a6.883,6.883,0,0,0-.093,2.019,3.734,3.734,0,0,0,1.32,2.549s-.069-1.267-.172-2.438c-.211-1.214-.44-2.323-.44-2.323s.341,1.089.66,2.3c.232,1.17.395,2.443.395,2.443Z" transform="translate(-126.83 -66.709)" fill="#fdb42b"/>
      <path id="Path_43" data-name="Path 43" d="M172.244,133.1a11,11,0,0,0-2.367.638,5.765,5.765,0,0,0-1.559,1.021,2.625,2.625,0,0,0-.708,1.045s1.23-.424,2.541-.942c1.215-.576,2.5-1.252,2.5-1.252s-1.221.781-2.409,1.454c-1.269.62-2.475,1.162-2.475,1.162a3.454,3.454,0,0,0,3.141-.255c1.513-.89,2.786-2.751,2.632-2.953-.054-.094-.6-.056-1.29.088Z" transform="translate(-119.69 -94.056)" fill="#fdb42b"/>
      <path id="Path_44" data-name="Path 44" d="M139.161,145.388c-.69.98-1.489,2.016-1.489,2.016a2.605,2.605,0,0,0,1.2-.345,3.045,3.045,0,0,0,1.311-1.217,6.025,6.025,0,0,0,.672-2.11,2.157,2.157,0,0,0-.084-1.2c-.09-.053-.473.178-.983.492a6.806,6.806,0,0,0-.781.609c-.256.246-.516.5-.757.755a3.827,3.827,0,0,0-.913,2.716l.157-.146c.093-.1.223-.252.383-.43.3-.348.705-.811,1.109-1.276.386-.459.711-.989.968-1.343l.41-.6-.353.641c-.22.383-.509.931-.847,1.44Z" transform="translate(-98.528 -100.818)" fill="#fdb42b"/>
      <path id="Path_45" data-name="Path 45" d="M123.984,152.236c-.874.831-1.866,1.7-1.866,1.7a3.3,3.3,0,0,0,2.777-1.056,6.049,6.049,0,0,0,1.082-1.943,2.118,2.118,0,0,0,.16-1.191c-.075-.064-.5.079-1.064.293a6.908,6.908,0,0,0-.886.451c-.151.091-.3.193-.449.3a4.988,4.988,0,0,0-.443.293,3.867,3.867,0,0,0-1.444,2.49s.066-.041.181-.117l.461-.348,1.345-1.039c.473-.372.9-.834,1.218-1.132l.522-.515s-.19.225-.473.565-.684.822-1.121,1.252Z" transform="translate(-87.726 -105.913)" fill="#fdb42b"/>
      <path id="Path_46" data-name="Path 46" d="M151.788,138.327a2.577,2.577,0,0,0,1.106-.565,2.965,2.965,0,0,0,1.04-1.446,5.977,5.977,0,0,0,.244-2.192,2.281,2.281,0,0,0-.326-1.168,6.076,6.076,0,0,0-2.1,2.3,3.75,3.75,0,0,0-.353,2.838,1.641,1.641,0,0,0,.121-.178c.069-.12.169-.29.289-.492.229-.4.531-.928.835-1.457.28-.536.5-1.1.681-1.5s.283-.667.283-.667-.329,1.1-.763,2.271c-.482,1.091-1.058,2.256-1.058,2.256Z" transform="translate(-108.273 -94.05)" fill="#fdb42b"/>
      <path id="Path_47" data-name="Path 47" d="M189.482,98.558a11.014,11.014,0,0,0-1.935,1.469,4.8,4.8,0,0,0-.6.764,4.171,4.171,0,0,0-.434.758,2.555,2.555,0,0,0-.25,1.226s.986-.846,1.978-1.814c.9-.983,1.821-2.086,1.821-2.086s-.832,1.173-1.649,2.241c-.932,1.045-1.836,1.99-1.836,1.99a3.432,3.432,0,0,0,2.81-1.4,7.857,7.857,0,0,0,1.109-2.329,2.284,2.284,0,0,0,.151-1.381c-.087-.067-.573.173-1.158.562Z" transform="translate(-132.711 -69.309)" fill="#fdb42b"/>
      <path id="Path_48" data-name="Path 48" d="M111.132,169.142a10.48,10.48,0,0,0-2.137-1.162,5.888,5.888,0,0,0-1.848-.351,2.762,2.762,0,0,0-1.26.255s1.182.541,2.484,1.071c1.281.442,2.68.822,2.68.822l-.883-.181c-.525-.12-1.212-.24-1.881-.436-1.351-.427-2.6-.866-2.6-.866a3.339,3.339,0,0,0,2.409,1.963c1.715.407,3.979-.026,4.013-.278.027-.114-.38-.427-.98-.834Z" transform="translate(-76.437 -118.576)" fill="#fdb42b"/>
      <path id="Path_49" data-name="Path 49" d="M105.88,157.633a2.652,2.652,0,0,0,1.245.132,3.061,3.061,0,0,0,1.691-.638,6.193,6.193,0,0,0,1.456-1.694,2.123,2.123,0,0,0,.395-1.138c-.06-.079-.506-.015-1.1.085a8.955,8.955,0,0,0-1.957.691,3.841,3.841,0,0,0-1.92,2.177s1.179-.559,2.255-1.106c.54-.29,1.049-.65,1.423-.884l.618-.4s-.9.746-1.932,1.481C107.029,156.978,105.88,157.633,105.88,157.633Z" transform="translate(-76.437 -109.119)" fill="#fdb42b"/>
      <path id="Path_50" data-name="Path 50" d="M163.761,127.09a2.512,2.512,0,0,0,.977-.758,2.858,2.858,0,0,0,.73-1.615,5.845,5.845,0,0,0-.2-2.192,2.328,2.328,0,0,0-.558-1.086,5.962,5.962,0,0,0-1.595,2.654,3.7,3.7,0,0,0,.22,2.85s.431-1.2.8-2.323c.3-1.191.513-2.309.513-2.309s-.115,1.135-.292,2.37c-.259,1.159-.6,2.408-.6,2.408Z" transform="translate(-116.423 -85.903)" fill="#fdb42b"/>
      <path id="Path_51" data-name="Path 51" d="M182.337,116.532a11.3,11.3,0,0,0-2.192,1.074,4.925,4.925,0,0,0-.748.635,4.116,4.116,0,0,0-.576.664,2.611,2.611,0,0,0-.491,1.156s1.134-.644,2.3-1.4c1.079-.793,2.207-1.7,2.207-1.7s-1.052.992-2.071,1.884c-1.124.849-2.2,1.6-2.2,1.6a3.464,3.464,0,0,0,3.033-.843,7.894,7.894,0,0,0,1.559-2.072,2.346,2.346,0,0,0,.425-1.329c-.072-.082-.6.059-1.251.331Z" transform="translate(-127.178 -82.183)" fill="#fdb42b"/>
      <path id="Path_52" data-name="Path 52" d="M159.61,147.447a10.785,10.785,0,0,0-2.445.181,5.591,5.591,0,0,0-1.733.708,2.711,2.711,0,0,0-.9.892s1.29-.19,2.674-.454c1.317-.325,2.7-.758,2.7-.758l-.838.325c-.506.184-1.149.448-1.815.65l-1.839.483-.591.146a1.813,1.813,0,0,1-.229.044,3.411,3.411,0,0,0,3.132.339c1.664-.585,3.283-2.171,3.175-2.4-.036-.105-.57-.161-1.287-.161Z" transform="translate(-110.553 -104.296)" fill="#fdb42b"/>
      <path id="Path_53" data-name="Path 53" d="M128.414,165.594a10.72,10.72,0,0,0-2.33-.729,5.628,5.628,0,0,0-1.884.006,2.775,2.775,0,0,0-1.185.495s1.266.3,2.65.568c.684.12,1.369.164,1.9.222l.892.079-.9-.009c-.543-.02-1.233.006-1.935-.076l-1.89-.234c-.25-.035-.458-.061-.6-.082l-.229-.05a3.326,3.326,0,0,0,2.761,1.478,6.584,6.584,0,0,0,.681.012c.226-.023.452-.059.675-.1a10.957,10.957,0,0,0,1.254-.31c.763-.217,1.269-.524,1.272-.635S129.089,165.883,128.414,165.594Z" transform="translate(-88.459 -116.567)" fill="#fdb42b"/>
      <path id="Path_54" data-name="Path 54" d="M144.836,158.309a10.581,10.581,0,0,0-2.433-.275,5.709,5.709,0,0,0-1.845.363,2.759,2.759,0,0,0-1.061.708s1.3.056,2.713.056c.693-.018,1.375-.1,1.908-.143s.892-.091.892-.091l-.886.161c-.534.085-1.209.234-1.911.293s-1.381.094-1.9.132l-.609.035-.235-.006a3.355,3.355,0,0,0,3.006.925c1.752-.255,3.66-1.51,3.6-1.75-.018-.114-.522-.258-1.233-.4Z" transform="translate(-100.034 -111.787)" fill="#fdb42b"/>
      <rect id="Rectangle_2" data-name="Rectangle 2" width="18.7" height="1.13" transform="translate(20.091 39.109)" fill="#fdb42b"/>
      <rect id="Rectangle_3" data-name="Rectangle 3" width="21.863" height="1.132" rx="0.566" transform="translate(18.508 40.573)" fill="#fdb42b"/>
      <path id="Path_55" data-name="Path 55" d="M81.443,36.229,77.168,24.015a1.059,1.059,0,0,0-.73-.623,1.535,1.535,0,0,0,.859-.775,1.727,1.727,0,0,0,.109-.375.015.015,0,0,0-.006-.012,1.288,1.288,0,0,0-.416-1.2,1.064,1.064,0,0,0-1.595.035.493.493,0,0,0-.018.521c0,.009-.009.018-.012.026.018.029.057.032.078.059a.795.795,0,0,0,.368.24c.142.035.271.041.332-.02-.057-.143-.039-.234.009-.287a.012.012,0,0,1,.006-.012.23.23,0,0,1,.217-.029.039.039,0,0,1,.018,0,.371.371,0,0,1,.2.19.126.126,0,0,0,.012.02.5.5,0,0,1-.033.377.653.653,0,0,1-.054.129c-.6.963-3.479.032-4.781-1.317A5.212,5.212,0,0,1,70.5,18.917a36.178,36.178,0,0,0-8.378-1.364.4.4,0,0,0,.163-.322V16.31a.365.365,0,0,0-.027-.14,1.061,1.061,0,0,0,.693-.983,1.089,1.089,0,0,0-2.177,0,1.057,1.057,0,0,0,.693.983.432.432,0,0,0-.027.14v.922a.4.4,0,0,0,.163.322,35.966,35.966,0,0,0-8.393,1.364,5.212,5.212,0,0,1-1.233,2.048c-1.3,1.352-4.175,2.282-4.781,1.317a.653.653,0,0,1-.054-.129.518.518,0,0,1-.033-.377.126.126,0,0,1,.012-.02.371.371,0,0,1,.2-.19.039.039,0,0,0,.018,0,.215.215,0,0,1,.217.029.041.041,0,0,0,.006.012c.051.056.069.146.009.287.06.061.19.056.332.02a.693.693,0,0,0,.1-.038.669.669,0,0,0,.271-.2c.021-.026.063-.029.078-.059,0-.009-.009-.018-.012-.026a.493.493,0,0,0-.018-.521,1.064,1.064,0,0,0-1.595-.035,1.288,1.288,0,0,0-.416,1.2.015.015,0,0,1-.006.012A1.513,1.513,0,0,0,47.7,23.52a1.089,1.089,0,0,0-.386.474L43.035,36.208H42.8v1.235h.347c0,1.873,2.294,3.391,5.122,3.391s5.122-1.519,5.122-3.391h.347V36.208H53.5L49.227,23.994a1.1,1.1,0,0,0-.335-.433l.757-.1c.033-.009.063-.012.1-.02,2.062-.495,7.881-2.859,9.852-3.078a1.8,1.8,0,0,1,1.3.3,1.39,1.39,0,0,1,.377.4,164.738,164.738,0,0,0-.458,26.1H56.4c-.54,0-.977,1.115-.977,1.6H68.458c0-.489-.437-1.6-.977-1.6H62.89a164.731,164.731,0,0,0-.458-26.1,1.39,1.39,0,0,1,.377-.4,1.77,1.77,0,0,1,1.3-.3c1.972.219,7.79,2.584,9.852,3.078a5.123,5.123,0,0,0,1.6.149,1.088,1.088,0,0,0-.323.421L70.964,36.229h-.235v1.235h.347c0,1.873,2.294,3.391,5.125,3.391s5.122-1.519,5.122-3.391h.347V36.229h-.235Zm-38.2-.02,4.245-12.135a.872.872,0,0,1,.4-.436,1.352,1.352,0,0,0-.13.357L45.483,36.208h-2.24Zm2.348,0,2.264-12.135a.772.772,0,0,1,.274-.486c.093.009.2.009.3.012a.778.778,0,0,1,.259.474l2.264,12.135Zm3.464-12.135L53.3,36.208h-2.24L48.784,23.994a1.351,1.351,0,0,0-.13-.357.872.872,0,0,1,.4.436ZM71.181,36.229l4.245-12.135a.872.872,0,0,1,.4-.436,1.351,1.351,0,0,0-.13.357L73.418,36.229h-2.24Zm2.348,0,2.264-12.135c.072-.322.235-.533.416-.533s.344.208.416.533l2.264,12.135Zm5.469,0L76.719,24.015a1.352,1.352,0,0,0-.13-.357.873.873,0,0,1,.4.436l4.245,12.135h-2.24Z" transform="translate(-32.507 -9.995)" fill="#fdb42b"/>
    </g>
    <g id="Group_2" data-name="Group 2" transform="translate(0 69.446)">
      <path id="Path_56" data-name="Path 56" d="M7.389,237.49h.687l.886,3.011h-.7l-.154-.62H7.238l-.151.62H6.46l.932-3.011Zm.591,1.873-.314-1.232-.3,1.232Z" transform="translate(-4.512 -237.443)" fill="#fdb42b"/>
      <path id="Path_57" data-name="Path 57" d="M15.61,237.49h.681V238.7h.745V237.49h.681V240.5h-.681v-1.229h-.745V240.5H15.61Z" transform="translate(-10.904 -237.443)" fill="#fdb42b"/>
      <path id="Path_58" data-name="Path 58" d="M24.54,237.49h1l.437,1.858.491-1.858h.971V240.5H26.8v-2.519l-.633,2.519h-.494l-.579-2.519V240.5H24.54Z" transform="translate(-17.142 -237.443)" fill="#fdb42b"/>
      <path id="Path_59" data-name="Path 59" d="M36.11,237.483h1.884V238h-1.2v.7h.935v.515h-.935v.74h1.2v.538H36.11V237.48Z" transform="translate(-25.224 -237.436)" fill="#fdb42b"/>
      <path id="Path_60" data-name="Path 60" d="M43.463,237.49H44.2a2,2,0,0,1,.775.126.972.972,0,0,1,.479.459,1.922,1.922,0,0,1,.178.907,2.211,2.211,0,0,1-.109.72,1.3,1.3,0,0,1-.286.495.88.88,0,0,1-.4.243,2.15,2.15,0,0,1-.558.061H43.46V237.49Zm.681.515v1.978h.118a.659.659,0,0,0,.368-.088.588.588,0,0,0,.208-.307,2.006,2.006,0,0,0,.078-.635,1.6,1.6,0,0,0-.084-.591.563.563,0,0,0-.214-.281.7.7,0,0,0-.353-.073h-.118Z" transform="translate(-30.358 -237.443)" fill="#fdb42b"/>
      <path id="Path_61" data-name="Path 61" d="M55.02,237.49h1l.44,1.858.491-1.858h.971V240.5h-.639v-2.519l-.633,2.519h-.494l-.579-2.519V240.5H55.02V237.49Z" transform="translate(-38.433 -237.443)" fill="#fdb42b"/>
      <path id="Path_62" data-name="Path 62" d="M68.479,238.881c0,1.036-.374,1.551-1.124,1.551a.964.964,0,0,1-.841-.4,1.99,1.99,0,0,1-.283-1.156q0-1.549,1.124-1.551a.979.979,0,0,1,.838.389,1.932,1.932,0,0,1,.289,1.162Zm-.718,0a2.221,2.221,0,0,0-.1-.811.34.34,0,0,0-.621,0,2.146,2.146,0,0,0-.1.808,2.216,2.216,0,0,0,.1.8.337.337,0,0,0,.621.009,2.145,2.145,0,0,0,.1-.814Z" transform="translate(-46.263 -237.33)" fill="#fdb42b"/>
      <path id="Path_63" data-name="Path 63" d="M75.26,237.49h.681V238.7h.745V237.49h.681V240.5h-.681v-1.229h-.745V240.5H75.26Z" transform="translate(-52.571 -237.443)" fill="#fdb42b"/>
      <path id="Path_64" data-name="Path 64" d="M83.859,237.49h.687l.886,3.011h-.7l-.154-.62h-.874l-.151.62H82.93l.932-3.011Zm.591,1.873-.314-1.232-.3,1.232Z" transform="translate(-57.929 -237.443)" fill="#fdb42b"/>
      <path id="Path_65" data-name="Path 65" d="M92.08,237.49h1l.437,1.858.491-1.858h.971V240.5h-.639v-2.519l-.633,2.519h-.494l-.579-2.519V240.5H92.08Z" transform="translate(-64.32 -237.443)" fill="#fdb42b"/>
      <path id="Path_66" data-name="Path 66" d="M103.65,237.483h1.884V238h-1.2v.7h.935v.515h-.935v.74h1.2v.538H103.65V237.48Z" transform="translate(-72.402 -237.436)" fill="#fdb42b"/>
      <path id="Path_67" data-name="Path 67" d="M111,237.49h.733a2,2,0,0,1,.775.126.971.971,0,0,1,.479.459,1.922,1.922,0,0,1,.178.907,2.211,2.211,0,0,1-.109.72,1.3,1.3,0,0,1-.286.495.88.88,0,0,1-.4.243,2.15,2.15,0,0,1-.558.061H111V237.49Zm.681.515v1.978h.118a.659.659,0,0,0,.368-.088.588.588,0,0,0,.208-.307,2.006,2.006,0,0,0,.078-.635,1.6,1.6,0,0,0-.084-.591.563.563,0,0,0-.214-.281.7.7,0,0,0-.353-.073h-.118Z" transform="translate(-77.536 -237.443)" fill="#fdb42b"/>
      <path id="Path_68" data-name="Path 68" d="M122.229,237.49h.687l.886,3.011h-.7l-.154-.62h-.874l-.151.62H121.3l.932-3.011Zm.591,1.873-.314-1.232-.3,1.232Z" transform="translate(-84.731 -237.443)" fill="#fdb42b"/>
      <path id="Path_69" data-name="Path 69" d="M130.45,237.49h1.058a2.088,2.088,0,0,1,.564.059.578.578,0,0,1,.317.252.864.864,0,0,1,.13.483.614.614,0,0,1-.443.65.714.714,0,0,1,.528.737.844.844,0,0,1-.142.495.689.689,0,0,1-.353.269,2.073,2.073,0,0,1-.6.067h-1.058V237.49Zm.654,1.214h.22q.33,0,.416-.114a.425.425,0,0,0,.084-.263.374.374,0,0,0-.084-.243.465.465,0,0,0-.365-.108H131.1Zm0,1.279h.335q.47,0,.47-.4a.36.36,0,0,0-.118-.307.586.586,0,0,0-.353-.091H131.1Z" transform="translate(-91.123 -237.443)" fill="#fdb42b"/>
      <path id="Path_70" data-name="Path 70" d="M139.113,237.49h.733a2,2,0,0,1,.775.126.971.971,0,0,1,.479.459,1.921,1.921,0,0,1,.178.907,2.211,2.211,0,0,1-.109.72,1.3,1.3,0,0,1-.286.495.88.88,0,0,1-.4.243,2.15,2.15,0,0,1-.558.061h-.814V237.49Zm.681.515v1.978h.118a.659.659,0,0,0,.368-.088.588.588,0,0,0,.208-.307,2.007,2.007,0,0,0,.078-.635,1.6,1.6,0,0,0-.084-.591.563.563,0,0,0-.214-.281.7.7,0,0,0-.353-.073H139.8Z" transform="translate(-97.172 -237.443)" fill="#fdb42b"/>
      <path id="Path_71" data-name="Path 71" d="M147.8,237.476h.681V239.2a2.658,2.658,0,0,0,.033.506.35.35,0,0,0,.142.217.454.454,0,0,0,.265.073.414.414,0,0,0,.271-.082.346.346,0,0,0,.124-.217,3.554,3.554,0,0,0,.024-.5v-1.721h.57v1.694a3.512,3.512,0,0,1-.06.755.733.733,0,0,1-.308.427,1.13,1.13,0,0,1-.678.178,1.294,1.294,0,0,1-.636-.132.733.733,0,0,1-.329-.369,2.435,2.435,0,0,1-.1-.837V237.47Z" transform="translate(-103.242 -237.429)" fill="#fdb42b"/>
      <path id="Path_72" data-name="Path 72" d="M156.73,237.49h.681v2.446h1v.565H156.73Z" transform="translate(-109.48 -237.443)" fill="#fdb42b"/>
      <path id="Path_73" data-name="Path 73" d="M164.679,238.032l-.564.211a.451.451,0,0,0-.44-.372.335.335,0,0,0-.238.082.252.252,0,0,0-.087.193.243.243,0,0,0,.1.2,2.181,2.181,0,0,0,.431.2,2.729,2.729,0,0,1,.47.214.8.8,0,0,1,.277.287.828.828,0,0,1,.106.421.887.887,0,0,1-.3.691,1.145,1.145,0,0,1-.8.269,1.026,1.026,0,0,1-1.076-.828l.594-.167c.072.3.238.454.5.454a.443.443,0,0,0,.286-.088.29.29,0,0,0,.112-.234.272.272,0,0,0-.078-.2.964.964,0,0,0-.356-.184,3.413,3.413,0,0,1-.531-.222.79.79,0,0,1-.289-.287.8.8,0,0,1-.115-.424.888.888,0,0,1,.268-.664.98.98,0,0,1,.711-.26.934.934,0,0,1,1.01.7Z" transform="translate(-113.553 -237.33)" fill="#fdb42b"/>
      <path id="Path_74" data-name="Path 74" d="M171.029,237.49h.687l.886,3.011h-.7l-.154-.62h-.874l-.151.62H170.1l.932-3.011Zm.591,1.873-.314-1.232-.3,1.232Z" transform="translate(-118.819 -237.443)" fill="#fdb42b"/>
      <path id="Path_75" data-name="Path 75" d="M179.25,237.49h1l.44,1.858.491-1.858h.971V240.5h-.639v-2.519l-.633,2.519h-.494l-.579-2.519V240.5h-.555Z" transform="translate(-125.211 -237.443)" fill="#fdb42b"/>
      <path id="Path_76" data-name="Path 76" d="M190.489,237.49h.687l.886,3.011h-.7l-.154-.62h-.874l-.151.62h-.627l.932-3.011Zm.591,1.873-.314-1.232-.3,1.232Z" transform="translate(-132.413 -237.443)" fill="#fdb42b"/>
      <path id="Path_77" data-name="Path 77" d="M198.7,237.49h.733a2,2,0,0,1,.775.126.971.971,0,0,1,.479.459,1.919,1.919,0,0,1,.181.907,2.211,2.211,0,0,1-.109.72,1.3,1.3,0,0,1-.286.495.88.88,0,0,1-.4.243,2.15,2.15,0,0,1-.558.061H198.7V237.49Zm.681.515v1.978h.115a.659.659,0,0,0,.368-.088.588.588,0,0,0,.208-.307,2.007,2.007,0,0,0,.078-.635,1.6,1.6,0,0,0-.084-.591.563.563,0,0,0-.214-.281.706.706,0,0,0-.353-.073h-.115Z" transform="translate(-138.797 -237.443)" fill="#fdb42b"/>
      <path id="Path_78" data-name="Path 78" d="M.932,252.49h.687l.886,3.011h-.7l-.154-.62H.778l-.151.62H0Zm.591,1.873-.314-1.232-.3,1.232Z" transform="translate(0 -248.054)" fill="#fdb42b"/>
      <path id="Path_79" data-name="Path 79" d="M9.153,252.49h.733a2,2,0,0,1,.775.126.971.971,0,0,1,.479.459,1.922,1.922,0,0,1,.178.907,2.21,2.21,0,0,1-.109.72,1.3,1.3,0,0,1-.286.495.88.88,0,0,1-.4.243,2.15,2.15,0,0,1-.558.061H9.15V252.49Zm.681.515v1.978h.118a.659.659,0,0,0,.368-.088.588.588,0,0,0,.208-.307,2.007,2.007,0,0,0,.078-.635,1.6,1.6,0,0,0-.084-.591.563.563,0,0,0-.214-.281.7.7,0,0,0-.353-.073H9.837Z" transform="translate(-6.392 -248.054)" fill="#fdb42b"/>
      <path id="Path_80" data-name="Path 80" d="M16.65,252.49h.714l.476,2.294.491-2.294h.585l-.76,3.026-.763-.015Z" transform="translate(-11.63 -248.054)" fill="#fdb42b"/>
      <path id="Path_81" data-name="Path 81" d="M26.819,253.881c0,1.036-.374,1.551-1.124,1.551a.964.964,0,0,1-.841-.4,1.99,1.99,0,0,1-.283-1.156q0-1.549,1.124-1.551a.979.979,0,0,1,.838.389,1.932,1.932,0,0,1,.289,1.162Zm-.718,0a2.221,2.221,0,0,0-.1-.811.34.34,0,0,0-.621,0,2.147,2.147,0,0,0-.1.808,2.215,2.215,0,0,0,.1.8.337.337,0,0,0,.621.009,2.145,2.145,0,0,0,.1-.813Z" transform="translate(-17.163 -247.941)" fill="#fdb42b"/>
      <path id="Path_82" data-name="Path 82" d="M34.866,254.291l.63.038a1.27,1.27,0,0,1-.32.8.984.984,0,0,1-.757.307,1.007,1.007,0,0,1-.871-.413,1.9,1.9,0,0,1-.3-1.135,1.922,1.922,0,0,1,.3-1.141,1.018,1.018,0,0,1,.883-.413q.968,0,1.055,1.165l-.621.044c-.018-.448-.16-.67-.431-.67a.386.386,0,0,0-.341.217,1.858,1.858,0,0,0-.127.837,1.759,1.759,0,0,0,.115.764.377.377,0,0,0,.347.208c.247,0,.395-.2.437-.6Z" transform="translate(-23.226 -247.941)" fill="#fdb42b"/>
      <path id="Path_83" data-name="Path 83" d="M41.809,252.49H42.5l.886,3.011h-.7l-.154-.62h-.874l-.151.62H40.88l.932-3.011Zm.591,1.873-.314-1.232-.3,1.232Z" transform="translate(-28.556 -248.054)" fill="#fdb42b"/>
      <path id="Path_84" data-name="Path 84" d="M48.6,252.49h1.932v.565H49.9V255.5h-.681v-2.446H48.6Z" transform="translate(-33.948 -248.054)" fill="#fdb42b"/>
      <path id="Path_85" data-name="Path 85" d="M55.79,252.483h1.884V253h-1.2v.7h.935v.515h-.935v.74h1.2v.538H55.79V252.48Z" transform="translate(-38.971 -248.047)" fill="#fdb42b"/>
      <path id="Path_86" data-name="Path 86" d="M64.539,253.032l-.564.211a.451.451,0,0,0-.44-.372.335.335,0,0,0-.238.082.252.252,0,0,0-.087.193.243.243,0,0,0,.1.2,2.181,2.181,0,0,0,.431.2,2.729,2.729,0,0,1,.47.214.8.8,0,0,1,.277.287.828.828,0,0,1,.106.421.887.887,0,0,1-.3.691,1.145,1.145,0,0,1-.8.269,1.026,1.026,0,0,1-1.076-.828l.594-.167c.072.3.238.454.5.454a.443.443,0,0,0,.286-.088.29.29,0,0,0,.112-.234.272.272,0,0,0-.078-.2.964.964,0,0,0-.356-.184,3.411,3.411,0,0,1-.531-.222.789.789,0,0,1-.289-.287.8.8,0,0,1-.115-.424.888.888,0,0,1,.268-.664.981.981,0,0,1,.711-.26.934.934,0,0,1,1.01.7Z" transform="translate(-43.602 -247.941)" fill="#fdb42b"/>
      <path id="Path_87" data-name="Path 87" d="M75.815,253.671l.506.088a2.792,2.792,0,0,1-.422.963.466.466,0,0,0,.317.164c.012,0,.048,0,.106,0v.512a1.008,1.008,0,0,1-.235.032.838.838,0,0,1-.6-.284,1.331,1.331,0,0,1-.844.3.958.958,0,0,1-.751-.266.916.916,0,0,1-.238-.62.942.942,0,0,1,.705-.869,1.177,1.177,0,0,1-.289-.676.605.605,0,0,1,.229-.471.87.87,0,0,1,.591-.2.8.8,0,0,1,.579.208.685.685,0,0,1,.214.512.81.81,0,0,1-.537.723l.428.553a2.1,2.1,0,0,0,.241-.661Zm-1.2.36a.547.547,0,0,0-.317.48.435.435,0,0,0,.115.31.428.428,0,0,0,.326.12.611.611,0,0,0,.434-.176l-.561-.737Zm.265-.594a.463.463,0,0,0,.28-.416.273.273,0,0,0-.06-.179.215.215,0,0,0-.181-.073.228.228,0,0,0-.178.067.233.233,0,0,0-.063.17.825.825,0,0,0,.205.433Z" transform="translate(-51.447 -247.948)" fill="#fdb42b"/>
      <path id="Path_88" data-name="Path 88" d="M86.79,252.49h.681v2.446h1v.565H86.79Z" transform="translate(-60.625 -248.054)" fill="#fdb42b"/>
      <path id="Path_89" data-name="Path 89" d="M93.36,252.483h1.884V253h-1.2v.7h.935v.515h-.935v.74h1.2v.538H93.36V252.48Z" transform="translate(-65.214 -248.047)" fill="#fdb42b"/>
      <path id="Path_90" data-name="Path 90" d="M101.55,253.781h1.076v1.606h-.289l-.087-.345a.829.829,0,0,1-.751.389,1,1,0,0,1-.838-.4,1.754,1.754,0,0,1-.311-1.089,2.024,2.024,0,0,1,.3-1.176,1.029,1.029,0,0,1,.9-.433,1,1,0,0,1,1.067,1.033l-.612.1c-.042-.4-.19-.591-.44-.591a.419.419,0,0,0-.368.219,1.722,1.722,0,0,0-.139.828,1.585,1.585,0,0,0,.133.761.433.433,0,0,0,.392.219c.277,0,.416-.2.419-.6h-.464v-.515Z" transform="translate(-70.097 -247.941)" fill="#fdb42b"/>
      <path id="Path_91" data-name="Path 91" d="M109.689,252.49h.687l.886,3.011h-.7l-.154-.62h-.874l-.151.62h-.627l.932-3.011Zm.591,1.873-.314-1.232-.3,1.232Z" transform="translate(-75.972 -248.054)" fill="#fdb42b"/>
      <path id="Path_92" data-name="Path 92" d="M117.91,252.49h.681v2.446h1v.565H117.91Z" transform="translate(-82.363 -248.054)" fill="#fdb42b"/>
      <path id="Path_93" data-name="Path 93" d="M128.609,254.291l.63.038a1.27,1.27,0,0,1-.32.8.984.984,0,0,1-.757.307,1.007,1.007,0,0,1-.871-.413,1.9,1.9,0,0,1-.3-1.135,1.922,1.922,0,0,1,.3-1.141,1.022,1.022,0,0,1,.883-.413q.968,0,1.055,1.165l-.621.044c-.015-.448-.16-.67-.431-.67a.386.386,0,0,0-.341.217,1.858,1.858,0,0,0-.127.837,1.758,1.758,0,0,0,.115.764.374.374,0,0,0,.347.208c.247,0,.395-.2.437-.6Z" transform="translate(-88.706 -247.941)" fill="#fdb42b"/>
      <path id="Path_94" data-name="Path 94" d="M137.652,253.881c0,1.036-.374,1.551-1.124,1.551a.973.973,0,0,1-.844-.4,1.967,1.967,0,0,1-.283-1.156q0-1.549,1.124-1.551a.975.975,0,0,1,.838.389,1.932,1.932,0,0,1,.289,1.162Zm-.718,0a2.221,2.221,0,0,0-.1-.811.326.326,0,0,0-.311-.2.319.319,0,0,0-.307.2,2.147,2.147,0,0,0-.1.808,2.215,2.215,0,0,0,.1.8.337.337,0,0,0,.621.009,2.145,2.145,0,0,0,.1-.813Z" transform="translate(-94.581 -247.941)" fill="#fdb42b"/>
      <path id="Path_95" data-name="Path 95" d="M144.37,252.49h.757l.8,1.87v-1.87h.528V255.5h-.609l-.944-2.177V255.5h-.528V252.49Z" transform="translate(-100.846 -248.054)" fill="#fdb42b"/>
      <path id="Path_96" data-name="Path 96" d="M154.506,253.032l-.564.211a.451.451,0,0,0-.44-.372.335.335,0,0,0-.238.082.252.252,0,0,0-.087.193.243.243,0,0,0,.1.2,1.992,1.992,0,0,0,.434.2,2.729,2.729,0,0,1,.47.214.8.8,0,0,1,.277.287.828.828,0,0,1,.106.421.887.887,0,0,1-.3.691,1.145,1.145,0,0,1-.8.269,1.026,1.026,0,0,1-1.076-.828l.594-.167c.072.3.238.454.5.454a.443.443,0,0,0,.286-.088.29.29,0,0,0,.112-.234.285.285,0,0,0-.078-.2.9.9,0,0,0-.353-.184,3.411,3.411,0,0,1-.531-.222.789.789,0,0,1-.289-.287.8.8,0,0,1-.115-.424.888.888,0,0,1,.268-.664.985.985,0,0,1,.711-.26.934.934,0,0,1,1.01.7Z" transform="translate(-106.449 -247.941)" fill="#fdb42b"/>
      <path id="Path_97" data-name="Path 97" d="M161.01,252.476h.681V254.2a2.657,2.657,0,0,0,.033.506.346.346,0,0,0,.142.217.454.454,0,0,0,.265.073.409.409,0,0,0,.271-.082.346.346,0,0,0,.124-.217,3.55,3.55,0,0,0,.024-.5v-1.721h.57v1.694a3.511,3.511,0,0,1-.06.755.732.732,0,0,1-.308.427,1.13,1.13,0,0,1-.678.178,1.294,1.294,0,0,1-.636-.132.733.733,0,0,1-.329-.369,2.434,2.434,0,0,1-.1-.837V252.47Z" transform="translate(-112.47 -248.04)" fill="#fdb42b"/>
      <path id="Path_98" data-name="Path 98" d="M169.95,252.49h.681v2.446h1v.565H169.95Z" transform="translate(-118.715 -248.054)" fill="#fdb42b"/>
      <path id="Path_99" data-name="Path 99" d="M175.02,252.49h1.932v.565h-.633V255.5h-.681v-2.446h-.618Z" transform="translate(-122.256 -248.054)" fill="#fdb42b"/>
      <path id="Path_100" data-name="Path 100" d="M181.679,252.49h.687l.886,3.011h-.7l-.154-.62h-.874l-.151.62h-.627l.932-3.011Zm.591,1.873-.314-1.232-.3,1.232Z" transform="translate(-126.259 -248.054)" fill="#fdb42b"/>
      <path id="Path_101" data-name="Path 101" d="M189.82,252.49h.757l.8,1.87v-1.87h.528V255.5h-.609l-.944-2.177V255.5h-.528Z" transform="translate(-132.594 -248.054)" fill="#fdb42b"/>
      <path id="Path_102" data-name="Path 102" d="M199.836,254.291l.63.038a1.27,1.27,0,0,1-.32.8.984.984,0,0,1-.757.307,1.007,1.007,0,0,1-.871-.413,1.9,1.9,0,0,1-.3-1.135,1.922,1.922,0,0,1,.3-1.141,1.018,1.018,0,0,1,.883-.413q.968,0,1.055,1.165l-.621.044c-.018-.448-.16-.67-.431-.67a.386.386,0,0,0-.341.217,1.858,1.858,0,0,0-.127.837,1.759,1.759,0,0,0,.115.764.377.377,0,0,0,.347.208c.247,0,.395-.2.437-.6Z" transform="translate(-138.462 -247.941)" fill="#fdb42b"/>
      <path id="Path_103" data-name="Path 103" d="M205.58,252.49h.751l.437,1.1.467-1.1h.666l-.862,1.738V255.5h-.681v-1.273l-.778-1.738Z" transform="translate(-143.603 -248.054)" fill="#fdb42b"/>
    </g>
    <g id="Group_3" data-name="Group 3" transform="translate(1.016 54.104)">
      <path id="Path_104" data-name="Path 104" d="M21.641,195.368H19.926a.623.623,0,0,1-.383-.1.48.48,0,0,1-.163-.407c0-.108.006-.225.018-.348s.027-.252.051-.377l.145-.006a.28.28,0,0,0,.136.187.52.52,0,0,0,.253.059h1.3a2.155,2.155,0,0,0-.3-.863,1.522,1.522,0,0,0-.5-.462l.271-1.147a1.915,1.915,0,0,1,.7.919,4.091,4.091,0,0,1,.19,1.375v1.179Z" transform="translate(-14.553 -189.852)" fill="#fdb42b"/>
      <path id="Path_105" data-name="Path 105" d="M29.485,197.746a3.565,3.565,0,0,1-.935-.149,4.563,4.563,0,0,1-.832-.313,1,1,0,0,1-.543.418,1.485,1.485,0,0,1-.425.047H26v-1h.751a1.461,1.461,0,0,0,.543-.082.6.6,0,0,0,.356-.357,2.378,2.378,0,0,1,.552-.77.847.847,0,0,1,.506-.269c.13,0,.286.19.476.565a2.5,2.5,0,0,1,.3,1.1v.8Zm-.708-1.109a.621.621,0,0,0-.163-.281c-.121-.146-.226-.219-.314-.219s-.181.111-.25.331c.133.05.232.085.3.111a2.617,2.617,0,0,0,.344.111C28.746,196.689,28.777,196.672,28.777,196.637Z" transform="translate(-19.178 -192.236)" fill="#fdb42b"/>
      <path id="Path_106" data-name="Path 106" d="M42.92,197.186H38.91a.667.667,0,0,1-.431-.132.987.987,0,0,1-.274-.424,1.537,1.537,0,0,1-.461.445,1.141,1.141,0,0,1-.531.105H36.67v-.995h.543a.947.947,0,0,0,.666-.217,1.4,1.4,0,0,0,.341-.86l.256.035c-.006.088-.012.158-.015.214-.009.161-.015.293-.015.389a.443.443,0,0,0,.115.325.4.4,0,0,0,.3.114.8.8,0,0,0,.344-.073,4.068,4.068,0,0,0,.494-.3l1.357-.942c.16-.111.28-.19.359-.234a1.049,1.049,0,0,1,.534-.161.856.856,0,0,1,.678.29,1.517,1.517,0,0,1,.3,1.018Zm-.531-1.375c0-.111-.09-.2-.268-.269a1.421,1.421,0,0,0-.5-.085,1.319,1.319,0,0,0-.564.155,8.726,8.726,0,0,0-.907.571h.992c.832,0,1.245-.126,1.245-.375Z" transform="translate(-26.631 -191.67)" fill="#fdb42b"/>
      <path id="Path_107" data-name="Path 107" d="M58.6,192.262H56.52v-1h1.628l-.458-2.5-.241-.155a1.478,1.478,0,0,1,.069-.436,3.814,3.814,0,0,1,.3-.664l.175.088c0,.015-.006.053-.015.117a.307.307,0,0,0,.16.234,2.327,2.327,0,0,0,.446.228,3.774,3.774,0,0,1-.1.459,2.7,2.7,0,0,1-.151.4l-.136-.053.413,2.277v1Z" transform="translate(-40.497 -186.746)" fill="#fdb42b"/>
      <path id="Path_108" data-name="Path 108" d="M66.026,191.884a2.159,2.159,0,0,1-.078.6,4.653,4.653,0,0,1-.307.726l-.226-.088a4.223,4.223,0,0,0,.09-.764c0-.149-.012-.369-.039-.658s-.057-.576-.093-.857-.1-.62-.187-1.012a1.592,1.592,0,0,1-.045-.284,1.2,1.2,0,0,1,.118-.389c.078-.181.187-.4.329-.664l.226,1.3c.084.495.142.925.175,1.288C66.011,191.361,66.026,191.627,66.026,191.884Z" transform="translate(-46.518 -187.439)" fill="#fdb42b"/>
      <path id="Path_109" data-name="Path 109" d="M72.591,195.368H70.876a.623.623,0,0,1-.383-.1.48.48,0,0,1-.163-.407c0-.108.006-.225.018-.348s.027-.252.051-.377l.145-.006a.28.28,0,0,0,.136.187.52.52,0,0,0,.253.059h1.3a2.155,2.155,0,0,0-.3-.863,1.522,1.522,0,0,0-.5-.462L71.7,191.9a1.915,1.915,0,0,1,.7.919,4.091,4.091,0,0,1,.19,1.375v1.179Z" transform="translate(-50.143 -189.852)" fill="#fdb42b"/>
      <path id="Path_110" data-name="Path 110" d="M79.32,197.4H76.95v-1h1.993a1.115,1.115,0,0,0-.151-.421,2.979,2.979,0,0,0-.265-.331l.3-.875a1.714,1.714,0,0,1,.389.655,3.7,3.7,0,0,1,.106,1.015v.96Zm-.386.775-.455.822-.877-.462.455-.837Z" transform="translate(-54.768 -191.882)" fill="#fdb42b"/>
      <path id="Path_111" data-name="Path 111" d="M87.946,194.2l-.425,1.045c-.678.2-1.242.36-1.685.471a9.862,9.862,0,0,1-.977.2,4.376,4.376,0,0,1-.588.041H83.93v-1h.41c.072,0,.127,0,.163,0,.075-.009.151-.018.223-.023a2.223,2.223,0,0,1-.253-.448,1.1,1.1,0,0,1-.063-.383,1.239,1.239,0,0,1,.467-.957,1.607,1.607,0,0,1,1.091-.41,1.373,1.373,0,0,1,.8.269,1.511,1.511,0,0,1,.516.606l-.16.132a3,3,0,0,0-.476-.143,2.294,2.294,0,0,0-.434-.032,3.889,3.889,0,0,0-.814.073q-.434.092-.434.263,0,.255,1.052.837l1.923-.535Z" transform="translate(-59.643 -190.439)" fill="#fdb42b"/>
      <path id="Path_112" data-name="Path 112" d="M109.461,195.368h-1.715a.623.623,0,0,1-.383-.1.48.48,0,0,1-.163-.407c0-.108.006-.225.018-.348s.027-.252.051-.377l.145-.006a.28.28,0,0,0,.136.187.52.52,0,0,0,.253.059h1.3a2.155,2.155,0,0,0-.3-.863,1.522,1.522,0,0,0-.5-.462l.271-1.147a1.915,1.915,0,0,1,.7.919,4.091,4.091,0,0,1,.19,1.375v1.179Z" transform="translate(-75.898 -189.852)" fill="#fdb42b"/>
      <path id="Path_113" data-name="Path 113" d="M117.3,197.746a3.565,3.565,0,0,1-.935-.149,4.563,4.563,0,0,1-.832-.313,1,1,0,0,1-.543.418,1.485,1.485,0,0,1-.425.047h-.751v-1h.751a1.461,1.461,0,0,0,.543-.082.6.6,0,0,0,.356-.357,2.378,2.378,0,0,1,.552-.77.847.847,0,0,1,.506-.269c.13,0,.286.19.476.565a2.5,2.5,0,0,1,.3,1.1v.8Zm-.708-1.109a.621.621,0,0,0-.163-.281c-.121-.146-.226-.219-.314-.219s-.181.111-.25.331c.133.05.232.085.3.111a2.618,2.618,0,0,0,.344.111C116.556,196.689,116.587,196.672,116.587,196.637Z" transform="translate(-80.515 -192.236)" fill="#fdb42b"/>
      <path id="Path_114" data-name="Path 114" d="M128.816,197.228H124.49v-1h2.692a3.542,3.542,0,0,0-.847-.661,1.455,1.455,0,0,0-.675-.181,1.7,1.7,0,0,0-.181.009c-.054.006-.133.02-.235.041a1.939,1.939,0,0,1,.464-.685.872.872,0,0,1,.582-.219,1.055,1.055,0,0,1,.482.117,2.588,2.588,0,0,1,.519.377c.151.138.365.351.645.644a2.54,2.54,0,0,0,.434.4,1.435,1.435,0,0,0,.449.155v1Z" transform="translate(-87.976 -191.712)" fill="#fdb42b"/>
      <path id="Path_115" data-name="Path 115" d="M141.445,197.746a3.565,3.565,0,0,1-.935-.149,4.563,4.563,0,0,1-.832-.313,1,1,0,0,1-.543.418,1.485,1.485,0,0,1-.425.047h-.751v-1h.751a1.461,1.461,0,0,0,.543-.082.6.6,0,0,0,.356-.357,2.378,2.378,0,0,1,.552-.77.847.847,0,0,1,.507-.269c.13,0,.286.19.476.565a2.5,2.5,0,0,1,.3,1.1v.8Zm-.708-1.109a.621.621,0,0,0-.163-.281c-.121-.146-.226-.219-.314-.219s-.181.111-.25.331c.133.05.232.085.3.111a2.616,2.616,0,0,0,.344.111C140.706,196.689,140.737,196.672,140.737,196.637Z" transform="translate(-97.385 -192.236)" fill="#fdb42b"/>
      <path id="Path_116" data-name="Path 116" d="M160.241,195.368h-1.715a.623.623,0,0,1-.383-.1.48.48,0,0,1-.163-.407c0-.108.006-.225.018-.348s.027-.252.051-.377l.145-.006a.28.28,0,0,0,.136.187.516.516,0,0,0,.25.059h1.3a2.2,2.2,0,0,0-.3-.863,1.522,1.522,0,0,0-.5-.462l.271-1.147a1.915,1.915,0,0,1,.7.919,4.091,4.091,0,0,1,.19,1.375v1.179Z" transform="translate(-111.369 -189.852)" fill="#fdb42b"/>
      <path id="Path_117" data-name="Path 117" d="M168.085,197.746a3.565,3.565,0,0,1-.935-.149,4.563,4.563,0,0,1-.832-.313,1,1,0,0,1-.543.418,1.485,1.485,0,0,1-.425.047H164.6v-1h.751a1.461,1.461,0,0,0,.543-.082.6.6,0,0,0,.356-.357,2.378,2.378,0,0,1,.552-.77.847.847,0,0,1,.506-.269c.13,0,.286.19.476.565a2.5,2.5,0,0,1,.3,1.1v.8Zm-.708-1.109a.621.621,0,0,0-.163-.281c-.121-.146-.226-.219-.314-.219s-.181.111-.25.331c.133.05.232.085.3.111a2.616,2.616,0,0,0,.344.111C167.346,196.689,167.377,196.672,167.377,196.637Z" transform="translate(-115.993 -192.236)" fill="#fdb42b"/>
      <path id="Path_118" data-name="Path 118" d="M179.613,197.228H175.29v-1h2.692a3.542,3.542,0,0,0-.847-.661,1.455,1.455,0,0,0-.675-.181,1.7,1.7,0,0,0-.181.009c-.054.006-.133.02-.238.041a1.939,1.939,0,0,1,.464-.685.872.872,0,0,1,.582-.219,1.055,1.055,0,0,1,.482.117,2.588,2.588,0,0,1,.519.377c.151.138.365.351.645.644a2.541,2.541,0,0,0,.434.4,1.435,1.435,0,0,0,.449.155v1Z" transform="translate(-123.461 -191.712)" fill="#fdb42b"/>
      <path id="Path_119" data-name="Path 119" d="M191.846,185.482a.417.417,0,0,1-.1.161.308.308,0,0,1-.13.067l-.817.243a.712.712,0,0,1,.133-.181.551.551,0,0,1,.205-.091.71.71,0,0,1-.154-.123.171.171,0,0,1-.048-.111.235.235,0,0,1,.03-.108.906.906,0,0,1,.078-.12.655.655,0,0,1,.488-.319.142.142,0,0,1,.115.047.159.159,0,0,1,.042.12.271.271,0,0,1-.018.1,1.156,1.156,0,0,1-.069.126.75.75,0,0,0-.256-.091.329.329,0,0,0-.136.032.4.4,0,0,0-.084.059c0,.032.06.082.181.146a.639.639,0,0,0,.262.1,1.609,1.609,0,0,0,.271-.056Zm.009,3.863a2.159,2.159,0,0,1-.078.6,4.969,4.969,0,0,1-.308.726l-.226-.088a4.222,4.222,0,0,0,.09-.764c0-.149-.012-.369-.039-.658s-.057-.576-.093-.857-.1-.62-.187-1.012a1.591,1.591,0,0,1-.045-.284,1.2,1.2,0,0,1,.118-.389c.078-.181.187-.4.329-.664l.226,1.3c.084.495.142.925.175,1.288C191.84,188.821,191.855,189.087,191.855,189.345Z" transform="translate(-134.295 -184.9)" fill="#fdb42b"/>
      <path id="Path_120" data-name="Path 120" d="M5.984,215.583h-.4a.476.476,0,0,1-.205-.044.691.691,0,0,1-.3-.319,2.347,2.347,0,0,1-.217-.869,3.626,3.626,0,0,1-.329.357.477.477,0,0,1-.283.152.8.8,0,0,1-.148-.018l-.377-.073a2.422,2.422,0,0,1-.3-.07.076.076,0,0,1-.054-.076,2.209,2.209,0,0,1,.214-.512,2.911,2.911,0,0,1,.311-.533,1.942,1.942,0,0,1,.274-.211q.118-.079.335-.2l.163-.094a.835.835,0,0,1-.015-.085c0-.029-.006-.056-.006-.082a.99.99,0,0,1,.054-.287,2.469,2.469,0,0,1,.193-.427l.3,1.873a1.476,1.476,0,0,0,.187.6.24.24,0,0,0,.205.1h.4v.816Zm-.714-4.208-.341.559-.44-.24-.247.474-.576-.3.323-.527.458.222.268-.459.555.278Zm-.488,2.511-.063-.36c-.066.029-.118.053-.154.073a1.924,1.924,0,0,0-.271.161,1.6,1.6,0,0,0-.124.111c-.042.044-.063.076-.063.1s.036.05.109.067a.905.905,0,0,0,.214.023.3.3,0,0,0,.142-.038A1.822,1.822,0,0,0,4.781,213.886Z" transform="translate(-3.37 -203.433)" fill="#fdb42b"/>
      <path id="Path_121" data-name="Path 121" d="M13.255,221.235H11.32v-.816h1.625a.943.943,0,0,0-.124-.345,1.9,1.9,0,0,0-.217-.269l.247-.714a1.417,1.417,0,0,1,.317.536,3.017,3.017,0,0,1,.084.828v.784Zm-.048.527-.341.612-.44-.24-.247.474-.576-.3.323-.582.458.222.259-.486.564.307Z" transform="translate(-8.923 -209.085)" fill="#fdb42b"/>
      <path id="Path_122" data-name="Path 122" d="M18.955,217.62H17.02V216.8h1.625a.943.943,0,0,0-.124-.345,1.9,1.9,0,0,0-.217-.269l.247-.714a1.417,1.417,0,0,1,.317.535,3.017,3.017,0,0,1,.084.828v.784Zm.018-3.269-.371.673-.724-.366.374-.679Z" transform="translate(-12.905 -205.471)" fill="#fdb42b"/>
      <path id="Path_123" data-name="Path 123" d="M26.347,221.154a1.533,1.533,0,0,1-.452,1.021,1.243,1.243,0,0,1-.889.5,1.225,1.225,0,0,1-.561-.158,8.23,8.23,0,0,1-.935-.626l.13-.173a2.616,2.616,0,0,0,.546.287,1.228,1.228,0,0,0,.992-.1,2.771,2.771,0,0,0,.718-.617,1.694,1.694,0,0,1-.217.018.641.641,0,0,1-.488-.193.74.74,0,0,1-.181-.527,1.88,1.88,0,0,1,.214-.866c.154-.3.332-.454.528-.454.166,0,.3.108.419.328a1.68,1.68,0,0,1,.172.79v.775Zm-.371-.609q-.086-.483-.353-.483a.185.185,0,0,0-.154.073.251.251,0,0,0-.057.161.2.2,0,0,0,.124.178.647.647,0,0,0,.323.07Z" transform="translate(-17.438 -209.213)" fill="#fdb42b"/>
      <path id="Path_124" data-name="Path 124" d="M34.135,217.62H32.2V216.8h1.625a.943.943,0,0,0-.124-.345,1.9,1.9,0,0,0-.217-.269l.247-.714a1.417,1.417,0,0,1,.317.535,3.017,3.017,0,0,1,.084.828v.784Zm.018-3.269-.371.673-.724-.366.374-.679Z" transform="translate(-23.509 -205.471)" fill="#fdb42b"/>
      <path id="Path_125" data-name="Path 125" d="M40.285,217.62h-.434a.552.552,0,0,1-.522-.287,2.314,2.314,0,0,1-.178-1.071v-.854a.988.988,0,0,0-.084-.454,1.064,1.064,0,0,0-.187-.225l.335-.749a1.571,1.571,0,0,1,.25.474,2.466,2.466,0,0,1,.084.7v.591a2.948,2.948,0,0,0,.087.869c.045.129.118.2.217.2h.434v.816Z" transform="translate(-28.175 -205.471)" fill="#fdb42b"/>
      <path id="Path_126" data-name="Path 126" d="M45.09,216.948H42.82v-.816h.558a2.621,2.621,0,0,1,.268.012c.226.023.485.05.775.082a1.451,1.451,0,0,1-.645-.263.6.6,0,0,1-.184-.474,1.622,1.622,0,0,1,.22-.84c.148-.249.314-.375.5-.375.208,0,.389.176.546.524a3.069,3.069,0,0,1,.232,1.264v.887Zm-.386-3.611-.341.612-.44-.24-.247.474-.576-.307.323-.582.458.222.259-.486Zm-.033,2.364a1.36,1.36,0,0,0-.247-.4.391.391,0,0,0-.271-.143.158.158,0,0,0-.109.038.118.118,0,0,0-.045.094c0,.085.066.17.2.252a1.286,1.286,0,0,0,.473.164Z" transform="translate(-30.927 -204.799)" fill="#fdb42b"/>
      <path id="Path_127" data-name="Path 127" d="M51.33,217.04h-1.7v-.816h1.329l-.374-2.037-.2-.126a1.237,1.237,0,0,1,.054-.357,3.174,3.174,0,0,1,.241-.544l.142.073s0,.044-.012.1a.252.252,0,0,0,.13.193,1.936,1.936,0,0,0,.365.187,2.51,2.51,0,0,1-.081.375,2.31,2.31,0,0,1-.121.328l-.112-.041.338,1.858v.816Z" transform="translate(-35.684 -204.891)" fill="#fdb42b"/>
      <path id="Path_128" data-name="Path 128" d="M57.394,216.748a1.67,1.67,0,0,1-.066.489,3.851,3.851,0,0,1-.25.594l-.187-.073a3.605,3.605,0,0,0,.075-.623c0-.123-.009-.3-.03-.538s-.045-.468-.078-.7-.081-.506-.151-.828a1.333,1.333,0,0,1-.036-.231.993.993,0,0,1,.1-.316c.063-.149.154-.331.268-.541l.187,1.062c.069.4.115.755.142,1.05.021.228.03.448.03.658Z" transform="translate(-40.601 -205.471)" fill="#fdb42b"/>
      <path id="Path_129" data-name="Path 129" d="M70.184,218.794H67.592c-.25,0-.416,0-.5-.012a1.128,1.128,0,0,1-.265-.064.775.775,0,0,1-.416-.342,1.056,1.056,0,0,1-.163-.576,1.609,1.609,0,0,1,.012-.219,1.82,1.82,0,0,1,.048-.228,2.063,2.063,0,0,1,.118-.328,2.591,2.591,0,0,1,.229-.357l.172.12a2.879,2.879,0,0,0-.181.375.786.786,0,0,0-.048.272.467.467,0,0,0,.112.307.537.537,0,0,0,.3.178,1.783,1.783,0,0,0,.283.041c.118.009.238.015.368.015h2.234a2.563,2.563,0,0,0-.142-.325,2.322,2.322,0,0,0-.211-.293l.277-.7a1.807,1.807,0,0,1,.3.588,2.821,2.821,0,0,1,.063.691v.849Zm-1.091-2.847-.341.612-.44-.24-.247.474-.576-.307.323-.582.458.222.259-.486.564.307Z" transform="translate(-47.293 -206.645)" fill="#fdb42b"/>
      <path id="Path_130" data-name="Path 130" d="M82.1,221.772a.932.932,0,0,1-.217.486,2.5,2.5,0,0,1-.506.524.974.974,0,0,1-.552.246,1.366,1.366,0,0,1-.585-.149,7.639,7.639,0,0,1-.85-.515l.13-.187a2.428,2.428,0,0,0,.449.243,1.077,1.077,0,0,0,.368.064.883.883,0,0,0,.428-.117,3.858,3.858,0,0,0,.582-.436c.341-.3.512-.524.512-.685a.761.761,0,0,0-.1-.316,1.308,1.308,0,0,0-.271-.369l.172-.811a1.564,1.564,0,0,1,.326.483,1.608,1.608,0,0,1,.115.62Z" transform="translate(-56.472 -209.552)" fill="#fdb42b"/>
      <path id="Path_131" data-name="Path 131" d="M90.045,217.62h-.434a.552.552,0,0,1-.522-.287,2.314,2.314,0,0,1-.178-1.071v-.854a.988.988,0,0,0-.084-.454,1.064,1.064,0,0,0-.187-.225l.335-.749a1.571,1.571,0,0,1,.25.474,2.465,2.465,0,0,1,.084.7v.591a2.948,2.948,0,0,0,.087.869c.045.129.118.2.217.2h.434v.816Z" transform="translate(-62.933 -205.471)" fill="#fdb42b"/>
      <path id="Path_132" data-name="Path 132" d="M96.643,217.047a2.873,2.873,0,0,1-.576-.047,2.057,2.057,0,0,1-.452-.152,1.134,1.134,0,0,1-.32.161,1.691,1.691,0,0,1-.422.038h-.5a.484.484,0,0,1-.329-.105.885.885,0,0,1-.217-.348,1.091,1.091,0,0,1-.38.36.933.933,0,0,1-.431.094H92.57v-.816h.443a.807.807,0,0,0,.54-.178.86.86,0,0,0,.28-.7l.205.029c0,.064-.009.138-.012.219s-.006.173-.006.272a.337.337,0,0,0,.109.255.353.353,0,0,0,.247.1h.38a1.052,1.052,0,0,0,.537-.1.5.5,0,0,0,.2-.459.2.2,0,0,1,.045-.129.909.909,0,0,1,.115-.1l.118-.091c0,.038.006.091.009.155s0,.108,0,.129a2.535,2.535,0,0,1-.048.439,1.719,1.719,0,0,0,.256.094,2.334,2.334,0,0,0,.3.061.665.665,0,0,0-.078-.263.687.687,0,0,1-.078-.219.261.261,0,0,1,.021-.12.722.722,0,0,1,.069-.094l.262-.345a1.834,1.834,0,0,1,.118.342,1.724,1.724,0,0,1,.036.386v1.135Zm-.359-2.876-.341.612-.44-.24-.268.474-.555-.307.323-.582.458.222.259-.486.564.307Zm-.6-.711-.311.623-.582-.3.317-.612.576.287Z" transform="translate(-65.679 -204.898)" fill="#fdb42b"/>
      <path id="Path_133" data-name="Path 133" d="M107.3,217.924H105.36v-.816h1.625a.943.943,0,0,0-.124-.345,1.9,1.9,0,0,0-.217-.269l.247-.714a1.417,1.417,0,0,1,.317.536,3.017,3.017,0,0,1,.084.828v.784Zm-.048-3.207-.341.612-.44-.24-.247.474-.576-.307.323-.582.458.222.259-.486.564.307Z" transform="translate(-74.613 -205.775)" fill="#fdb42b"/>
      <path id="Path_134" data-name="Path 134" d="M115.123,221.914a2.873,2.873,0,0,1-.576-.047,2.056,2.056,0,0,1-.452-.152,1.134,1.134,0,0,1-.32.161,1.691,1.691,0,0,1-.422.038h-.5a.484.484,0,0,1-.329-.105.885.885,0,0,1-.217-.348,1.09,1.09,0,0,1-.38.36.933.933,0,0,1-.431.094h-.443V221.1h.443a.807.807,0,0,0,.54-.178.86.86,0,0,0,.28-.7l.205.029c0,.064-.009.138-.012.219s-.006.173-.006.272a.337.337,0,0,0,.109.255.353.353,0,0,0,.247.1h.38a1.052,1.052,0,0,0,.537-.1.5.5,0,0,0,.2-.459.2.2,0,0,1,.045-.129.911.911,0,0,1,.115-.1l.118-.091c0,.038.006.091.009.155s0,.108,0,.129a2.535,2.535,0,0,1-.048.439,1.715,1.715,0,0,0,.256.094,2.334,2.334,0,0,0,.3.061.665.665,0,0,0-.078-.263.687.687,0,0,1-.078-.219.261.261,0,0,1,.021-.12.725.725,0,0,1,.069-.094l.262-.345a1.834,1.834,0,0,1,.118.342,1.724,1.724,0,0,1,.036.386v1.135Z" transform="translate(-78.587 -209.764)" fill="#fdb42b"/>
      <path id="Path_135" data-name="Path 135" d="M127.783,214.381a2.273,2.273,0,0,1-.042.424c-.012.061-.042.17-.087.328l-.223-.085a2.954,2.954,0,0,1-.087.705,2.806,2.806,0,0,1-.277.694c.115.2.178.313.2.348a.552.552,0,0,1,.075.249v.094c0,.05-.015.255-.048.612a2.625,2.625,0,0,1-.63.211,5.209,5.209,0,0,1-.823.047v-.89a2.718,2.718,0,0,0,.446-.263,2.378,2.378,0,0,0,.35-.369c-.235-.287-.407-.492-.513-.609q-.131-.145-.335-.334a1.342,1.342,0,0,1-.072.132c-.015.02-.03.032-.045.032a.725.725,0,0,1-.277-.123,2,2,0,0,1-.28-.2.615.615,0,0,1-.151-.325,3.051,3.051,0,0,1-.051-.609.781.781,0,0,1,.021-.225.081.081,0,0,1,.084-.061c.081,0,.244.111.488.337a6.706,6.706,0,0,1,.564.576,4.885,4.885,0,0,1,.353.416c.093.123.244.331.446.629a1.879,1.879,0,0,0,.193-.65,4.5,4.5,0,0,0,.03-.574.442.442,0,0,1-.151-.1.2.2,0,0,1-.039-.135,1.7,1.7,0,0,1,.039-.366,2.044,2.044,0,0,1,.133-.389l.13.041a.283.283,0,0,0,.093.255,2.559,2.559,0,0,0,.494.178Zm-.916,4.413a.286.286,0,0,1-.075.14.22.22,0,0,1-.106.053l-.666.2a.621.621,0,0,1,.109-.149.511.511,0,0,1,.16-.082.608.608,0,0,1-.127-.1.14.14,0,0,1-.039-.091.214.214,0,0,1,.024-.088.461.461,0,0,1,.066-.1.535.535,0,0,1,.4-.26.118.118,0,0,1,.093.038.138.138,0,0,1,.036.1.222.222,0,0,1-.015.082.529.529,0,0,1-.057.1.625.625,0,0,0-.211-.076.249.249,0,0,0-.112.026.261.261,0,0,0-.069.047c0,.026.048.064.148.12a.564.564,0,0,0,.214.082,1.522,1.522,0,0,0,.223-.044Zm.106-1.8-.148-.222a2.933,2.933,0,0,1-.208.208c-.048.041-.133.1-.256.187a1.859,1.859,0,0,0,.335-.053,1.359,1.359,0,0,0,.277-.123Z" transform="translate(-88.269 -205.421)" fill="#fdb42b"/>
      <path id="Path_136" data-name="Path 136" d="M136.884,216.748a1.67,1.67,0,0,1-.066.489,3.85,3.85,0,0,1-.25.594l-.187-.073a3.605,3.605,0,0,0,.075-.623c0-.123-.009-.3-.03-.538s-.045-.468-.078-.7-.081-.506-.151-.828a1.332,1.332,0,0,1-.036-.231.993.993,0,0,1,.1-.316c.063-.149.154-.331.268-.541l.187,1.062c.069.4.115.755.142,1.05.021.228.03.448.03.658Z" transform="translate(-96.127 -205.471)" fill="#fdb42b"/>
      <path id="Path_137" data-name="Path 137" d="M142.227,221.154a1.533,1.533,0,0,1-.452,1.021,1.243,1.243,0,0,1-.889.5,1.225,1.225,0,0,1-.561-.158,8.231,8.231,0,0,1-.935-.626l.13-.173a2.615,2.615,0,0,0,.546.287,1.205,1.205,0,0,0,.4.061,1.217,1.217,0,0,0,.594-.161,2.771,2.771,0,0,0,.717-.617,1.694,1.694,0,0,1-.217.018.641.641,0,0,1-.488-.193.74.74,0,0,1-.181-.527,1.88,1.88,0,0,1,.214-.866c.154-.3.332-.454.528-.454.166,0,.3.108.419.328a1.68,1.68,0,0,1,.172.79v.775Zm-.371-.609q-.086-.483-.353-.483a.185.185,0,0,0-.154.073.251.251,0,0,0-.057.161.2.2,0,0,0,.124.178.647.647,0,0,0,.323.07h.118Z" transform="translate(-98.384 -209.213)" fill="#fdb42b"/>
      <path id="Path_138" data-name="Path 138" d="M156.784,213.714l-.341.612-.44-.24-.247.474-.576-.3.323-.582.458.222.259-.486.564.307Zm.154,2.379a2.162,2.162,0,0,1-.03.366,1.431,1.431,0,0,1-.075.3.8.8,0,0,1-.428.4,1.3,1.3,0,0,1-.594.161.481.481,0,0,1-.383-.161.639.639,0,0,1-.142-.433,1.645,1.645,0,0,1,.072-.483,3.6,3.6,0,0,1,.262-.6l-.112-.073c.036-.091.081-.2.142-.334s.115-.243.16-.331l.3.173a4.167,4.167,0,0,1,.377.252,1.259,1.259,0,0,1,.35.348.8.8,0,0,1,.1.407Zm-.458.24c0-.038-.072-.117-.214-.237a3.787,3.787,0,0,0-.422-.31.986.986,0,0,0-.2.5.2.2,0,0,0,.081.164.292.292,0,0,0,.2.07,1.108,1.108,0,0,0,.356-.07c.133-.047.2-.088.2-.123Z" transform="translate(-109.413 -205.067)" fill="#fdb42b"/>
      <path id="Path_139" data-name="Path 139" d="M163.488,217.62h-.434a.552.552,0,0,1-.522-.287,2.307,2.307,0,0,1-.181-1.071v-.854a.988.988,0,0,0-.084-.454,1.064,1.064,0,0,0-.187-.225l.335-.749a1.571,1.571,0,0,1,.25.474,2.466,2.466,0,0,1,.084.7v.591a2.948,2.948,0,0,0,.087.869c.045.129.118.2.217.2h.434v.816Z" transform="translate(-114.233 -205.471)" fill="#fdb42b"/>
      <path id="Path_140" data-name="Path 140" d="M168.876,221.536a2.88,2.88,0,0,1-.763-.123,4,4,0,0,1-.681-.255.853.853,0,0,1-.443.342,1.211,1.211,0,0,1-.347.038h-.612v-.816h.612a1.219,1.219,0,0,0,.443-.067.489.489,0,0,0,.289-.29,1.878,1.878,0,0,1,.452-.626.691.691,0,0,1,.413-.219c.106,0,.235.155.389.462a2.033,2.033,0,0,1,.244.9v.655Zm-.579-.907a.5.5,0,0,0-.133-.228c-.1-.12-.184-.181-.256-.181s-.148.091-.2.269c.106.041.187.07.244.091a1.75,1.75,0,0,0,.28.091C168.273,220.67,168.3,220.655,168.3,220.629Z" transform="translate(-116.992 -209.389)" fill="#fdb42b"/>
      <path id="Path_141" data-name="Path 141" d="M177.128,217.62h-.434a.552.552,0,0,1-.522-.287,2.307,2.307,0,0,1-.181-1.071v-.854a.988.988,0,0,0-.084-.454,1.064,1.064,0,0,0-.187-.225l.335-.749a1.571,1.571,0,0,1,.25.474,2.466,2.466,0,0,1,.084.7v.591a2.947,2.947,0,0,0,.087.869c.045.129.118.2.217.2h.434v.816Z" transform="translate(-123.761 -205.471)" fill="#fdb42b"/>
      <path id="Path_142" data-name="Path 142" d="M183.2,221.1h-3.53v-.816h2.2a2.983,2.983,0,0,0-.693-.541,1.2,1.2,0,0,0-.549-.146.784.784,0,0,0-.148.009c-.045.006-.109.018-.193.035a1.58,1.58,0,0,1,.38-.559.709.709,0,0,1,.473-.181.843.843,0,0,1,.392.1,2.062,2.062,0,0,1,.422.31c.124.111.3.287.525.524a2.035,2.035,0,0,0,.353.328,1.137,1.137,0,0,0,.365.126v.816Z" transform="translate(-126.52 -208.951)" fill="#fdb42b"/>
      <path id="Path_143" data-name="Path 143" d="M193.506,221.536a2.88,2.88,0,0,1-.763-.123,4,4,0,0,1-.681-.255.853.853,0,0,1-.443.342,1.212,1.212,0,0,1-.347.038h-.612v-.816h.612a1.219,1.219,0,0,0,.443-.067.489.489,0,0,0,.289-.29,1.879,1.879,0,0,1,.452-.626.691.691,0,0,1,.413-.219c.106,0,.235.155.389.462a2.033,2.033,0,0,1,.244.9v.655Zm-.579-.907a.5.5,0,0,0-.133-.228c-.1-.12-.184-.181-.256-.181s-.148.091-.205.269c.106.041.187.07.244.091a1.751,1.751,0,0,0,.28.091C192.9,220.67,192.927,220.655,192.927,220.629Z" transform="translate(-134.197 -209.389)" fill="#fdb42b"/>
      <path id="Path_144" data-name="Path 144" d="M201.08,217.04h-1.7v-.816h1.329l-.374-2.037-.2-.126a1.236,1.236,0,0,1,.054-.357,3.173,3.173,0,0,1,.241-.544l.142.073s0,.044-.012.1a.252.252,0,0,0,.13.193,1.937,1.937,0,0,0,.365.187,2.506,2.506,0,0,1-.081.375,2.307,2.307,0,0,1-.121.328l-.112-.041.338,1.858v.816Z" transform="translate(-140.288 -204.891)" fill="#fdb42b"/>
      <path id="Path_145" data-name="Path 145" d="M206,217.04h-1.7v-.816h1.329l-.374-2.037-.2-.126a1.237,1.237,0,0,1,.054-.357,3.174,3.174,0,0,1,.241-.544l.142.073s0,.044-.012.1a.252.252,0,0,0,.13.193,1.936,1.936,0,0,0,.365.187,2.512,2.512,0,0,1-.081.375,2.311,2.311,0,0,1-.121.328l-.112-.041L206,216.23v.816Z" transform="translate(-143.725 -204.891)" fill="#fdb42b"/>
    </g>
  </g>
</svg>
