<svg xmlns="http://www.w3.org/2000/svg" width="19.313" height="14.757" viewBox="0 0 19.313 14.757">
  <g id="_1814108_email_envenlope_letter_mail_icon" data-name="1814108_email_envenlope_letter_mail_icon" transform="translate(-8.1 -13.8)">
    <g id="Icon-Envelope" transform="translate(8.1 13.8)">
      <path id="Fill-3" d="M-50.609-214.334l-.766-.766-7.1,7.1a2.337,2.337,0,0,1-3.266,0l-7.1-7.056-.766.766,5.282,5.282L-69.6-203.73l.766.766,5.282-5.282L-62.5-207.2a3.361,3.361,0,0,0,2.379,1.008,3.361,3.361,0,0,0,2.379-1.008l1.048-1.048,5.282,5.282.766-.766-5.282-5.282,5.322-5.322" transform="translate(69.721 216.35)" fill="#134563"/>
      <path id="Fill-4" d="M-52.28-203.443H-68.207a1.7,1.7,0,0,1-1.693-1.693v-11.37a1.7,1.7,0,0,1,1.693-1.693H-52.28a1.7,1.7,0,0,1,1.693,1.693v11.37a1.7,1.7,0,0,1-1.693,1.693Zm-15.967-13.668a.551.551,0,0,0-.564.564v11.37a.551.551,0,0,0,.564.564h15.926a.551.551,0,0,0,.564-.564v-11.37a.551.551,0,0,0-.564-.564Z" transform="translate(69.9 218.2)" fill="#134563"/>
    </g>
  </g>
</svg>
