<svg xmlns="http://www.w3.org/2000/svg" width="18.591" height="12.871" viewBox="0 0 18.591 12.871">
  <g id="mail_email_e-mail_letter" data-name="mail email e-mail letter" transform="translate(-3 -7)">
    <path id="Path_168" data-name="Path 168" d="M20.876,13a.715.715,0,0,0-.715.715v5.72a.715.715,0,0,1-.715.715H5.145a.715.715,0,0,1-.715-.715v-5.72a.715.715,0,1,0-1.43,0v5.72a2.148,2.148,0,0,0,2.145,2.145h14.3a2.148,2.148,0,0,0,2.145-2.145v-5.72A.715.715,0,0,0,20.876,13Z" transform="translate(0 -1.71)" fill="#fff"/>
    <path id="Path_169" data-name="Path 169" d="M11.921,15.438a.715.715,0,0,0,.858,0L21.224,9.1a.715.715,0,0,0,.215-.88,2.188,2.188,0,0,0-.422-.593A2.145,2.145,0,0,0,19.5,7H5.2a2.145,2.145,0,0,0-1.516.629,2.188,2.188,0,0,0-.422.593.715.715,0,0,0,.215.88ZM5.2,8.43H19.5a.644.644,0,0,1,.2,0L12.35,13.972,5,8.43a.644.644,0,0,1,.2,0Z" transform="translate(-0.055 0)" fill="#fff"/>
  </g>
</svg>
