<svg xmlns="http://www.w3.org/2000/svg" width="16.233" height="15.601" viewBox="0 0 16.233 15.601">
  <g id="Navigator" transform="translate(-29.86 -48.907)">
    <path id="Path_170" data-name="Path 170" d="M313.5,49.866a3.014,3.014,0,0,0-4.223-.183,3.389,3.389,0,0,0-.522,4.4l2.04,3a.6.6,0,0,0,1,0l2.04-3A3.386,3.386,0,0,0,313.5,49.866ZM311.3,53.255a1.075,1.075,0,1,1,1.023-1.073,1.049,1.049,0,0,1-1.023,1.073Z" transform="translate(-268.326)" fill="#fff"/>
    <path id="Path_171" data-name="Path 171" d="M79.606,126.13a.629.629,0,0,0-.614.644v1.373a2.172,2.172,0,1,1-4.339,0v-5.841a3.4,3.4,0,1,0-6.793,0v3.037a.614.614,0,1,0,1.227,0v-3.037a2.172,2.172,0,1,1,4.339,0v5.841a3.4,3.4,0,1,0,6.793,0v-1.373a.629.629,0,0,0-.614-.644Z" transform="translate(-36.636 -67.205)" fill="#fff"/>
    <path id="Path_172" data-name="Path 172" d="M31.837,352.9a2.078,2.078,0,1,0,1.978,2.075A2.028,2.028,0,0,0,31.837,352.9Z" transform="translate(0 -292.545)" fill="#fff"/>
  </g>
</svg>
