<svg xmlns="http://www.w3.org/2000/svg" width="14.938" height="14.996" viewBox="0 0 14.938 14.996">
  <g id="Group_269" data-name="Group 269" transform="translate(-14 -14)">
    <g id="_1" data-name="1" transform="translate(79.079 -139.108) rotate(90)">
      <path id="Path_178" data-name="Path 178" d="M160.546,65.079a.558.558,0,0,1-.395-.163l-6.879-6.88a.558.558,0,0,1,0-.789l6.879-6.88a.558.558,0,1,1,.79.789l-6.485,6.485,6.485,6.485a.558.558,0,0,1-.395.953Z" fill="#fff"/>
    </g>
    <g id="_1-2" data-name="1" transform="translate(79.142 -132.108) rotate(90)">
      <path id="Path_178-2" data-name="Path 178" d="M160.546,65.079a.558.558,0,0,1-.395-.163l-6.879-6.88a.558.558,0,0,1,0-.789l6.879-6.88a.558.558,0,1,1,.79.789l-6.485,6.485,6.485,6.485a.558.558,0,0,1-.395.953Z" fill="#fff"/>
    </g>
  </g>
</svg>
