<svg id="Component_149_1" data-name="Component 149 – 1" xmlns="http://www.w3.org/2000/svg" width="25.194" height="25.194" viewBox="0 0 25.194 25.194">
  <g id="XMLID_77_" transform="translate(-17.8 -15.8)">
    <g id="XMLID_78_" transform="translate(17.8 15.8)">
      <g id="XMLID_81_" transform="translate(0 0)">
        <path id="XMLID_82_" d="M30.37,15.8A12.575,12.575,0,0,0,17.8,28.37,12.381,12.381,0,0,0,19.813,35.2l-1.9,4.217a1.143,1.143,0,0,0,.163,1.17,1.215,1.215,0,0,0,1.143.354L24.493,39.5A12.587,12.587,0,1,0,30.37,15.8Zm0,22.963a10.308,10.308,0,0,1-5.224-1.415.981.981,0,0,0-.544-.163,1.116,1.116,0,0,0-.3.027l-3.455.952,1.2-2.639a1.109,1.109,0,0,0-.109-1.088,10.285,10.285,0,0,1-1.959-6.067A10.393,10.393,0,1,1,30.37,38.763Z" transform="translate(-17.8 -15.8)" fill="#fff" fill-rule="evenodd"/>
      </g>
      <g id="XMLID_79_" transform="translate(6.501 6.849)">
        <path id="XMLID_80_" d="M52.606,48.573a2.044,2.044,0,0,0-1.823-.408c-.463.19-.789.952-1.088,1.333a.5.5,0,0,1-.6.136A8.233,8.233,0,0,1,44.961,46.1a.542.542,0,0,1,.054-.707,2.906,2.906,0,0,0,.762-1.224,2.679,2.679,0,0,0-.326-1.442,3.28,3.28,0,0,0-1.061-1.605,1.423,1.423,0,0,0-1.578.245A3.2,3.2,0,0,0,41.7,43.92a2.809,2.809,0,0,0,.109.816,6.57,6.57,0,0,0,.789,1.8,9.578,9.578,0,0,0,.816,1.224,12.537,12.537,0,0,0,3.51,3.265,10.859,10.859,0,0,0,2.2,1.034,5.181,5.181,0,0,0,2.557.408,3.1,3.1,0,0,0,2.313-1.714,1.614,1.614,0,0,0,.109-.871C53.912,49.226,53.1,48.872,52.606,48.573Z" transform="translate(-41.695 -40.975)" fill="#fff" fill-rule="evenodd"/>
      </g>
    </g>
  </g>
</svg>
